<svg xmlns="http://www.w3.org/2000/svg" width="980" height="560" viewBox="0 0 980 560">
<rect width="100%" height="100%" fill="white"/>
<text x="30" y="36" font-family="Arial, sans-serif" font-size="20" font-weight="bold" text-anchor="start" fill="#222">Assigned Crashes by Distance and Direction</text>
<text x="30" y="60" font-family="Arial, sans-serif" font-size="12" font-weight="normal" text-anchor="start" fill="#222">Accepted crash assignment reused</text>
<text x="30" y="80" font-family="Arial, sans-serif" font-size="11" font-weight="normal" text-anchor="start" fill="#222">Active v2/v5. Speed context: v5 Speed_Limit_RNS supplement. Exposure: AADT v2 direction-factor with bidirectional fallback.</text>
<line x1="95" y1="105" x2="95" y2="425" stroke="#666"/>
<line x1="95" y1="425" x2="885" y2="425" stroke="#666"/>
<rect x="95" y="274" width="138" height="151" fill="#4477AA"/>
<rect x="95" y="130" width="138" height="144" fill="#66AA77"/>
<text x="164.0" y="122" font-family="Arial, sans-serif" font-size="11" font-weight="normal" text-anchor="middle" fill="#222">3,527</text>
<text x="164.0" y="449" font-family="Arial, sans-serif" font-size="10" font-weight="normal" text-anchor="middle" fill="#222">0-250 ft</text>
<rect x="257" y="339" width="138" height="86" fill="#4477AA"/>
<rect x="257" y="260" width="138" height="79" fill="#66AA77"/>
<text x="326.0" y="252" font-family="Arial, sans-serif" font-size="11" font-weight="normal" text-anchor="middle" fill="#222">1,975</text>
<text x="326.0" y="449" font-family="Arial, sans-serif" font-size="10" font-weight="normal" text-anchor="middle" fill="#222">1,000-1,500 ft</text>
<rect x="419" y="341" width="138" height="84" fill="#4477AA"/>
<rect x="419" y="252" width="138" height="89" fill="#66AA77"/>
<text x="488.0" y="244" font-family="Arial, sans-serif" font-size="11" font-weight="normal" text-anchor="middle" fill="#222">2,071</text>
<text x="488.0" y="449" font-family="Arial, sans-serif" font-size="10" font-weight="normal" text-anchor="middle" fill="#222">1,500-2,500 ft</text>
<rect x="581" y="335" width="138" height="90" fill="#4477AA"/>
<rect x="581" y="238" width="138" height="97" fill="#66AA77"/>
<text x="650.0" y="230" font-family="Arial, sans-serif" font-size="11" font-weight="normal" text-anchor="middle" fill="#222">2,240</text>
<text x="650.0" y="449" font-family="Arial, sans-serif" font-size="10" font-weight="normal" text-anchor="middle" fill="#222">250-500 ft</text>
<rect x="743" y="278" width="138" height="147" fill="#4477AA"/>
<rect x="743" y="140" width="138" height="138" fill="#66AA77"/>
<text x="812.0" y="132" font-family="Arial, sans-serif" font-size="11" font-weight="normal" text-anchor="middle" fill="#222">3,403</text>
<text x="812.0" y="449" font-family="Arial, sans-serif" font-size="10" font-weight="normal" text-anchor="middle" fill="#222">500-1,000 ft</text>
<rect x="700" y="112" width="12" height="12" fill="#4477AA"/>
<text x="718" y="123" font-family="Arial, sans-serif" font-size="11" font-weight="normal" text-anchor="start" fill="#222">Downstream</text>
<rect x="700" y="132" width="12" height="12" fill="#66AA77"/>
<text x="718" y="143" font-family="Arial, sans-serif" font-size="11" font-weight="normal" text-anchor="start" fill="#222">Upstream</text>
</svg>