<svg xmlns="http://www.w3.org/2000/svg" width="980" height="560" viewBox="0 0 980 560">
<rect width="100%" height="100%" fill="white"/>
<text x="30" y="36" font-family="Arial, sans-serif" font-size="20" font-weight="bold" text-anchor="start" fill="#222">Speed Coverage by Distance and Direction</text>
<text x="30" y="60" font-family="Arial, sans-serif" font-size="12" font-weight="normal" text-anchor="start" fill="#222">Speed v5 Speed_Limit_RNS supplement</text>
<text x="30" y="80" font-family="Arial, sans-serif" font-size="11" font-weight="normal" text-anchor="start" fill="#222">Active v2/v5. Speed context: v5 Speed_Limit_RNS supplement. Exposure: AADT v2 direction-factor with bidirectional fallback.</text>
<line x1="95" y1="105" x2="95" y2="425" stroke="#666"/>
<line x1="95" y1="425" x2="885" y2="425" stroke="#666"/>
<rect x="95" y="246" width="57" height="179" fill="#4477AA"/>
<rect x="95" y="232" width="57" height="14" fill="#BBBBBB"/>
<text x="123.5" y="224" font-family="Arial, sans-serif" font-size="11" font-weight="normal" text-anchor="middle" fill="#222">9,315</text>
<text x="123.5" y="449" font-family="Arial, sans-serif" font-size="10" font-weight="normal" text-anchor="middle" fill="#222">0-250 ft Downstream</text>
<rect x="176" y="247" width="57" height="178" fill="#4477AA"/>
<rect x="176" y="234" width="57" height="13" fill="#BBBBBB"/>
<text x="204.5" y="226" font-family="Arial, sans-serif" font-size="11" font-weight="normal" text-anchor="middle" fill="#222">9,223</text>
<text x="204.5" y="449" font-family="Arial, sans-serif" font-size="10" font-weight="normal" text-anchor="middle" fill="#222">0-250 ft Upstream</text>
<rect x="257" y="230" width="57" height="195" fill="#4477AA"/>
<rect x="257" y="226" width="57" height="4" fill="#BBBBBB"/>
<text x="285.5" y="218" font-family="Arial, sans-serif" font-size="11" font-weight="normal" text-anchor="middle" fill="#222">9,604</text>
<text x="285.5" y="449" font-family="Arial, sans-serif" font-size="10" font-weight="normal" text-anchor="middle" fill="#222">1,000-1,500 ft Downstream</text>
<rect x="338" y="232" width="57" height="193" fill="#4477AA"/>
<rect x="338" y="226" width="57" height="6" fill="#BBBBBB"/>
<text x="366.5" y="218" font-family="Arial, sans-serif" font-size="11" font-weight="normal" text-anchor="middle" fill="#222">9,621</text>
<text x="366.5" y="449" font-family="Arial, sans-serif" font-size="10" font-weight="normal" text-anchor="middle" fill="#222">1,000-1,500 ft Upstream</text>
<rect x="419" y="165" width="57" height="260" fill="#4477AA"/>
<rect x="419" y="162" width="57" height="3" fill="#BBBBBB"/>
<text x="447.5" y="154" font-family="Arial, sans-serif" font-size="11" font-weight="normal" text-anchor="middle" fill="#222">12,700</text>
<text x="447.5" y="449" font-family="Arial, sans-serif" font-size="10" font-weight="normal" text-anchor="middle" fill="#222">1,500-2,500 ft Downstream</text>
<rect x="500" y="166" width="57" height="259" fill="#4477AA"/>
<rect x="500" y="161" width="57" height="5" fill="#BBBBBB"/>
<text x="528.5" y="153" font-family="Arial, sans-serif" font-size="11" font-weight="normal" text-anchor="middle" fill="#222">12,711</text>
<text x="528.5" y="449" font-family="Arial, sans-serif" font-size="10" font-weight="normal" text-anchor="middle" fill="#222">1,500-2,500 ft Upstream</text>
<rect x="581" y="239" width="57" height="186" fill="#4477AA"/>
<rect x="581" y="227" width="57" height="12" fill="#BBBBBB"/>
<text x="609.5" y="219" font-family="Arial, sans-serif" font-size="11" font-weight="normal" text-anchor="middle" fill="#222">9,560</text>
<text x="609.5" y="449" font-family="Arial, sans-serif" font-size="10" font-weight="normal" text-anchor="middle" fill="#222">250-500 ft Downstream</text>
<rect x="662" y="238" width="57" height="187" fill="#4477AA"/>
<rect x="662" y="226" width="57" height="12" fill="#BBBBBB"/>
<text x="690.5" y="218" font-family="Arial, sans-serif" font-size="11" font-weight="normal" text-anchor="middle" fill="#222">9,582</text>
<text x="690.5" y="449" font-family="Arial, sans-serif" font-size="10" font-weight="normal" text-anchor="middle" fill="#222">250-500 ft Upstream</text>
<rect x="743" y="142" width="57" height="283" fill="#4477AA"/>
<rect x="743" y="130" width="57" height="12" fill="#BBBBBB"/>
<text x="771.5" y="122" font-family="Arial, sans-serif" font-size="11" font-weight="normal" text-anchor="middle" fill="#222">14,191</text>
<text x="771.5" y="449" font-family="Arial, sans-serif" font-size="10" font-weight="normal" text-anchor="middle" fill="#222">500-1,000 ft Downstream</text>
<rect x="824" y="144" width="57" height="281" fill="#4477AA"/>
<rect x="824" y="130" width="57" height="14" fill="#BBBBBB"/>
<text x="852.5" y="122" font-family="Arial, sans-serif" font-size="11" font-weight="normal" text-anchor="middle" fill="#222">14,203</text>
<text x="852.5" y="449" font-family="Arial, sans-serif" font-size="10" font-weight="normal" text-anchor="middle" fill="#222">500-1,000 ft Upstream</text>
<rect x="700" y="112" width="12" height="12" fill="#4477AA"/>
<text x="718" y="123" font-family="Arial, sans-serif" font-size="11" font-weight="normal" text-anchor="start" fill="#222">Stable speed</text>
<rect x="700" y="132" width="12" height="12" fill="#BBBBBB"/>
<text x="718" y="143" font-family="Arial, sans-serif" font-size="11" font-weight="normal" text-anchor="start" fill="#222">Missing/review</text>
</svg>