<svg xmlns="http://www.w3.org/2000/svg" width="980" height="560" viewBox="0 0 980 560">
<rect width="100%" height="100%" fill="white"/>
<text x="30" y="36" font-family="Arial, sans-serif" font-size="20" font-weight="bold" text-anchor="start" fill="#222">Roadway Representation Mix by Distance</text>
<text x="30" y="60" font-family="Arial, sans-serif" font-size="12" font-weight="normal" text-anchor="start" fill="#222">Accepted scaffold reused</text>
<text x="30" y="80" font-family="Arial, sans-serif" font-size="11" font-weight="normal" text-anchor="start" fill="#222">Active v2/v5. Speed context: v5 Speed_Limit_RNS supplement. Exposure: AADT v2 direction-factor with bidirectional fallback.</text>
<line x1="95" y1="105" x2="95" y2="425" stroke="#666"/>
<line x1="95" y1="425" x2="885" y2="425" stroke="#666"/>
<rect x="95" y="385" width="138" height="40" fill="#4477AA"/>
<rect x="95" y="232" width="138" height="153" fill="#66AA77"/>
<text x="164.0" y="224" font-family="Arial, sans-serif" font-size="11" font-weight="normal" text-anchor="middle" fill="#222">18,538</text>
<text x="164.0" y="449" font-family="Arial, sans-serif" font-size="10" font-weight="normal" text-anchor="middle" fill="#222">0-250 ft</text>
<rect x="257" y="408" width="138" height="17" fill="#4477AA"/>
<rect x="257" y="225" width="138" height="183" fill="#66AA77"/>
<text x="326.0" y="217" font-family="Arial, sans-serif" font-size="11" font-weight="normal" text-anchor="middle" fill="#222">19,225</text>
<text x="326.0" y="449" font-family="Arial, sans-serif" font-size="10" font-weight="normal" text-anchor="middle" fill="#222">1,000-1,500 ft</text>
<rect x="419" y="414" width="138" height="11" fill="#4477AA"/>
<rect x="419" y="161" width="138" height="253" fill="#66AA77"/>
<text x="488.0" y="153" font-family="Arial, sans-serif" font-size="11" font-weight="normal" text-anchor="middle" fill="#222">25,411</text>
<text x="488.0" y="449" font-family="Arial, sans-serif" font-size="10" font-weight="normal" text-anchor="middle" fill="#222">1,500-2,500 ft</text>
<rect x="581" y="391" width="138" height="34" fill="#4477AA"/>
<rect x="581" y="226" width="138" height="165" fill="#66AA77"/>
<text x="650.0" y="218" font-family="Arial, sans-serif" font-size="11" font-weight="normal" text-anchor="middle" fill="#222">19,142</text>
<text x="650.0" y="449" font-family="Arial, sans-serif" font-size="10" font-weight="normal" text-anchor="middle" fill="#222">250-500 ft</text>
<rect x="743" y="384" width="138" height="41" fill="#4477AA"/>
<rect x="743" y="130" width="138" height="254" fill="#66AA77"/>
<text x="812.0" y="122" font-family="Arial, sans-serif" font-size="11" font-weight="normal" text-anchor="middle" fill="#222">28,394</text>
<text x="812.0" y="449" font-family="Arial, sans-serif" font-size="10" font-weight="normal" text-anchor="middle" fill="#222">500-1,000 ft</text>
<rect x="700" y="112" width="12" height="12" fill="#4477AA"/>
<text x="718" y="123" font-family="Arial, sans-serif" font-size="11" font-weight="normal" text-anchor="start" fill="#222">divided physical carriageway</text>
<rect x="700" y="132" width="12" height="12" fill="#66AA77"/>
<text x="718" y="143" font-family="Arial, sans-serif" font-size="11" font-weight="normal" text-anchor="start" fill="#222">undivided centerline pseudo direction</text>
</svg>