<svg xmlns="http://www.w3.org/2000/svg" width="920" height="470" viewBox="0 0 920 470">
<rect width="100%" height="100%" fill="white"/>
<text x="30" y="36" font-family="Arial, sans-serif" font-size="20" font-weight="bold" text-anchor="start" fill="#202124">Roadway Representation Mix by Distance Band</text>
<text x="30" y="60" font-family="Arial, sans-serif" font-size="12" font-weight="normal" text-anchor="start" fill="#5f6368">Directional-bin representation in the accepted roadway-graph context.</text>
<rect x="95.00" y="75.00" width="13.00" height="13.00" fill="#4d77a8" stroke="none"/>
<text x="115" y="87" font-family="Arial, sans-serif" font-size="11" font-weight="normal" text-anchor="start" fill="#202124">Divided physical</text>
<rect x="275.00" y="75.00" width="13.00" height="13.00" fill="#b87d37" stroke="none"/>
<text x="295" y="87" font-family="Arial, sans-serif" font-size="11" font-weight="normal" text-anchor="start" fill="#202124">Undivided pseudo-direction</text>
<line x1="95" y1="362" x2="795" y2="362" stroke="#5f6368"/>
<line x1="95" y1="112" x2="95" y2="362" stroke="#5f6368"/>
<line x1="91" y1="362.00" x2="795" y2="362.00" stroke="#edf0f2"/>
<text x="87" y="366.0" font-family="Arial, sans-serif" font-size="10" font-weight="normal" text-anchor="end" fill="#5f6368">0</text>
<line x1="91" y1="299.50" x2="795" y2="299.50" stroke="#edf0f2"/>
<text x="87" y="303.5" font-family="Arial, sans-serif" font-size="10" font-weight="normal" text-anchor="end" fill="#5f6368">7,098</text>
<line x1="91" y1="237.00" x2="795" y2="237.00" stroke="#edf0f2"/>
<text x="87" y="241.0" font-family="Arial, sans-serif" font-size="10" font-weight="normal" text-anchor="end" fill="#5f6368">14,197</text>
<line x1="91" y1="174.50" x2="795" y2="174.50" stroke="#edf0f2"/>
<text x="87" y="178.5" font-family="Arial, sans-serif" font-size="10" font-weight="normal" text-anchor="end" fill="#5f6368">21,296</text>
<line x1="91" y1="112.00" x2="795" y2="112.00" stroke="#edf0f2"/>
<text x="87" y="116.0" font-family="Arial, sans-serif" font-size="10" font-weight="normal" text-anchor="end" fill="#5f6368">28,394</text>
<rect x="129.00" y="328.13" width="88.00" height="33.87" fill="#4d77a8" stroke="white"/>
<rect x="129.00" y="198.78" width="88.00" height="129.35" fill="#b87d37" stroke="white"/>
<text x="173.0" y="382" font-family="Arial, sans-serif" font-size="10" font-weight="normal" text-anchor="middle" fill="#202124">0-250 ft</text>
<text x="173.0" y="190.7788969500599" font-family="Arial, sans-serif" font-size="11" font-weight="bold" text-anchor="middle" fill="#202124">18,538</text>
<rect x="251.00" y="333.21" width="88.00" height="28.79" fill="#4d77a8" stroke="white"/>
<rect x="251.00" y="193.46" width="88.00" height="139.75" fill="#b87d37" stroke="white"/>
<text x="295.0" y="382" font-family="Arial, sans-serif" font-size="10" font-weight="normal" text-anchor="middle" fill="#202124">250-500 ft</text>
<text x="295.0" y="185.46087201521448" font-family="Arial, sans-serif" font-size="11" font-weight="bold" text-anchor="middle" fill="#202124">19,142</text>
<rect x="373.00" y="326.59" width="88.00" height="35.41" fill="#4d77a8" stroke="white"/>
<rect x="373.00" y="112.00" width="88.00" height="214.59" fill="#b87d37" stroke="white"/>
<text x="417.0" y="382" font-family="Arial, sans-serif" font-size="10" font-weight="normal" text-anchor="middle" fill="#202124">500-1,000 ft</text>
<text x="417.0" y="104.0" font-family="Arial, sans-serif" font-size="11" font-weight="bold" text-anchor="middle" fill="#202124">28,394</text>
<rect x="495.00" y="347.57" width="88.00" height="14.43" fill="#4d77a8" stroke="white"/>
<rect x="495.00" y="192.73" width="88.00" height="154.84" fill="#b87d37" stroke="white"/>
<text x="539.0" y="382" font-family="Arial, sans-serif" font-size="10" font-weight="normal" text-anchor="middle" fill="#202124">1,000-1,500 ft</text>
<text x="539.0" y="184.73008382052544" font-family="Arial, sans-serif" font-size="11" font-weight="bold" text-anchor="middle" fill="#202124">19,225</text>
<rect x="617.00" y="352.16" width="88.00" height="9.84" fill="#4d77a8" stroke="white"/>
<rect x="617.00" y="138.26" width="88.00" height="213.89" fill="#b87d37" stroke="white"/>
<text x="661.0" y="382" font-family="Arial, sans-serif" font-size="10" font-weight="normal" text-anchor="middle" fill="#202124">1,500-2,500 ft</text>
<text x="661.0" y="130.26435162358246" font-family="Arial, sans-serif" font-size="11" font-weight="bold" text-anchor="middle" fill="#202124">25,411</text>
<text x="30" y="446" font-family="Arial, sans-serif" font-size="11" font-weight="normal" text-anchor="start" fill="#5f6368">Representation is descriptive context for accepted bins.</text>
</svg>