<?xml version="1.0" encoding="UTF-8" standalone="no"?>
<!DOCTYPE svg PUBLIC "-//W3C//DTD SVG 1.1//EN"
 "http://www.w3.org/Graphics/SVG/1.1/DTD/svg11.dtd">
<!-- Generated by graphviz version 14.1.5 (20260411.2331)
 -->
<!-- Title: directionality_decision_diagram Pages: 1 -->
<svg width="1398pt" height="1067pt"
 viewBox="0.00 0.00 1398.00 1067.00" xmlns="http://www.w3.org/2000/svg" xmlns:xlink="http://www.w3.org/1999/xlink">
<g id="graph0" class="graph" transform="scale(1 1) rotate(0) translate(8.64 1057.98)">
<title>directionality_decision_diagram</title>
<polygon fill="white" stroke="none" points="-8.64,8.64 -8.64,-1057.98 1389.64,-1057.98 1389.64,8.64 -8.64,8.64"/>
<text xml:space="preserve" text-anchor="start" x="424.62" y="-1025.34" font-family="Arial" font-weight="bold" font-size="20.00">Empirical Flow Orientation on Divided&#45;Road Study Rows</text>
<text xml:space="preserve" text-anchor="start" x="201.12" y="-1006.09" font-family="Arial" font-size="13.00">For one segmented one&#45;side roadway row at a time, is there enough conservative crash evidence to assign local travel direction, or should the row stay unresolved?</text>
<g id="clust1" class="cluster">
<title>cluster_starts</title>
<path fill="#fff9f0" stroke="#e9d3af" d="M20,-814.42C20,-814.42 238,-814.42 238,-814.42 244,-814.42 250,-820.42 250,-826.42 250,-826.42 250,-975.25 250,-975.25 250,-981.25 244,-987.25 238,-987.25 238,-987.25 20,-987.25 20,-987.25 14,-987.25 8,-981.25 8,-975.25 8,-975.25 8,-826.42 8,-826.42 8,-820.42 14,-814.42 20,-814.42"/>
<text xml:space="preserve" text-anchor="middle" x="129" y="-969.95" font-family="Arial" font-size="14.00">Inputs / Starts Here</text>
</g>
<g id="clust2" class="cluster">
<title>cluster_spine</title>
<path fill="#ffffff" stroke="#d7e2ea" stroke-width="1.1" d="M270,-329.17C270,-329.17 993,-329.17 993,-329.17 999,-329.17 1005,-335.17 1005,-341.17 1005,-341.17 1005,-977.09 1005,-977.09 1005,-983.09 999,-989.09 993,-989.09 993,-989.09 270,-989.09 270,-989.09 264,-989.09 258,-983.09 258,-977.09 258,-977.09 258,-341.16 258,-341.16 258,-335.16 264,-329.17 270,-329.17"/>
<text xml:space="preserve" text-anchor="middle" x="631.5" y="-971.79" font-family="Arial" font-size="14.00">Main Assignment Spine</text>
</g>
<g id="clust3" class="cluster">
<title>cluster_rules</title>
<path fill="#fff9f0" stroke="#e9d3af" d="M1025,-328.7C1025,-328.7 1361,-328.7 1361,-328.7 1367,-328.7 1373,-334.7 1373,-340.7 1373,-340.7 1373,-971.56 1373,-971.56 1373,-977.56 1367,-983.56 1361,-983.56 1361,-983.56 1025,-983.56 1025,-983.56 1019,-983.56 1013,-977.56 1013,-971.56 1013,-971.56 1013,-340.7 1013,-340.7 1013,-334.7 1019,-328.7 1025,-328.7"/>
<text xml:space="preserve" text-anchor="middle" x="1193" y="-966.26" font-family="Arial" font-size="14.00">Definitions / Prototype Mechanics</text>
</g>
<g id="clust4" class="cluster">
<title>cluster_outputs</title>
<path fill="#fff9f0" stroke="#e9d3af" stroke-width="1.1" d="M476,-8C476,-8 806,-8 806,-8 812,-8 818,-14 818,-20 818,-20 818,-293.7 818,-293.7 818,-299.7 812,-305.7 806,-305.7 806,-305.7 476,-305.7 476,-305.7 470,-305.7 464,-299.7 464,-293.7 464,-293.7 464,-20 464,-20 464,-14 470,-8 476,-8"/>
<text xml:space="preserve" text-anchor="middle" x="641" y="-288.4" font-family="Arial" font-size="14.00">Outputs / Review</text>
</g>
<!-- input_scope -->
<g id="node1" class="node">
<title>input_scope</title>
<path fill="#fff4e5" stroke="#d8a552" stroke-width="1.2" d="M230.2,-955.5C230.2,-955.5 63.8,-955.5 63.8,-955.5 57.8,-955.5 51.8,-949.5 51.8,-943.5 51.8,-943.5 51.8,-914.04 51.8,-914.04 51.8,-908.04 57.8,-902.04 63.8,-902.04 63.8,-902.04 230.2,-902.04 230.2,-902.04 236.2,-902.04 242.2,-908.04 242.2,-914.04 242.2,-914.04 242.2,-943.5 242.2,-943.5 242.2,-949.5 236.2,-955.5 230.2,-955.5"/>
<text xml:space="preserve" text-anchor="middle" x="147" y="-938.57" font-family="Arial" font-size="11.00" fill="#1f2a33">Starting point</text>
<text xml:space="preserve" text-anchor="middle" x="147" y="-925.07" font-family="Arial" font-size="11.00" fill="#1f2a33">row segmentation and crash&#45;to&#45;row</text>
<text xml:space="preserve" text-anchor="middle" x="147" y="-911.57" font-family="Arial" font-size="11.00" fill="#1f2a33">attachment are already done</text>
</g>
<!-- start -->
<g id="node3" class="node">
<title>start</title>
<path fill="#eaf3f9" stroke="#3b6f8e" stroke-width="1.2" d="M919.14,-957.34C919.14,-957.34 716.86,-957.34 716.86,-957.34 710.86,-957.34 704.86,-951.34 704.86,-945.34 704.86,-945.34 704.86,-912.19 704.86,-912.19 704.86,-906.19 710.86,-900.19 716.86,-900.19 716.86,-900.19 919.14,-900.19 919.14,-900.19 925.14,-900.19 931.14,-906.19 931.14,-912.19 931.14,-912.19 931.14,-945.34 931.14,-945.34 931.14,-951.34 925.14,-957.34 919.14,-957.34"/>
<text xml:space="preserve" text-anchor="middle" x="818" y="-938.74" font-family="Arial" font-size="12.00" fill="#1f2a33">Review one study row</text>
<text xml:space="preserve" text-anchor="middle" x="818" y="-924.49" font-family="Arial" font-size="12.00" fill="#1f2a33">one segmented one&#45;side roadway unit</text>
<text xml:space="preserve" text-anchor="middle" x="818" y="-910.24" font-family="Arial" font-size="12.00" fill="#1f2a33">used for local flow assignment</text>
</g>
<!-- input_scope&#45;&gt;start -->
<!-- input_fields -->
<g id="node2" class="node">
<title>input_fields</title>
<path fill="#fff4e5" stroke="#d8a552" stroke-width="1.2" d="M229.83,-875.88C229.83,-875.88 28.17,-875.88 28.17,-875.88 22.17,-875.88 16.17,-869.88 16.17,-863.88 16.17,-863.88 16.17,-834.42 16.17,-834.42 16.17,-828.42 22.17,-822.42 28.17,-822.42 28.17,-822.42 229.83,-822.42 229.83,-822.42 235.83,-822.42 241.83,-828.42 241.83,-834.42 241.83,-834.42 241.83,-863.88 241.83,-863.88 241.83,-869.88 235.83,-875.88 229.83,-875.88"/>
<text xml:space="preserve" text-anchor="middle" x="129" y="-858.95" font-family="Arial" font-size="11.00" fill="#1f2a33">Evidence already available</text>
<text xml:space="preserve" text-anchor="middle" x="129" y="-845.45" font-family="Arial" font-size="11.00" fill="#1f2a33">attached crashes + crash direction of travel</text>
<text xml:space="preserve" text-anchor="middle" x="129" y="-831.95" font-family="Arial" font-size="11.00" fill="#1f2a33">+ vehicle count + maneuver fields</text>
</g>
<!-- gather -->
<g id="node4" class="node">
<title>gather</title>
<path fill="#eaf3f9" stroke="#3b6f8e" stroke-width="1.2" d="M891.68,-870.6C891.68,-870.6 744.32,-870.6 744.32,-870.6 738.32,-870.6 732.32,-864.6 732.32,-858.6 732.32,-858.6 732.32,-839.7 732.32,-839.7 732.32,-833.7 738.32,-827.7 744.32,-827.7 744.32,-827.7 891.68,-827.7 891.68,-827.7 897.68,-827.7 903.68,-833.7 903.68,-839.7 903.68,-839.7 903.68,-858.6 903.68,-858.6 903.68,-864.6 897.68,-870.6 891.68,-870.6"/>
<text xml:space="preserve" text-anchor="middle" x="818" y="-852" font-family="Arial" font-size="12.00" fill="#1f2a33">Use only crashes already</text>
<text xml:space="preserve" text-anchor="middle" x="818" y="-837.75" font-family="Arial" font-size="12.00" fill="#1f2a33">attached to that row</text>
</g>
<!-- input_fields&#45;&gt;gather -->
<!-- start&#45;&gt;gather -->
<g id="edge1" class="edge">
<title>start&#45;&gt;gather</title>
<path fill="none" stroke="#4e5b66" stroke-width="1.05" d="M818,-900.02C818,-900.02 818,-880.89 818,-880.89"/>
<polygon fill="#4e5b66" stroke="#4e5b66" stroke-width="1.05" points="820.87,-880.89 818,-872.69 815.13,-880.89 820.87,-880.89"/>
</g>
<!-- rule_terms -->
<g id="node12" class="node">
<title>rule_terms</title>
<path fill="#fff4e5" stroke="#d8a552" stroke-width="1.2" d="M1228.58,-951.81C1228.58,-951.81 1033.42,-951.81 1033.42,-951.81 1027.42,-951.81 1021.42,-945.81 1021.42,-939.81 1021.42,-939.81 1021.42,-917.73 1021.42,-917.73 1021.42,-911.73 1027.42,-905.73 1033.42,-905.73 1033.42,-905.73 1228.58,-905.73 1228.58,-905.73 1234.58,-905.73 1240.58,-911.73 1240.58,-917.73 1240.58,-917.73 1240.58,-939.81 1240.58,-939.81 1240.58,-945.81 1234.58,-951.81 1228.58,-951.81"/>
<text xml:space="preserve" text-anchor="middle" x="1131" y="-937.27" font-family="Arial" font-size="10.00" fill="#1f2a33">Study row in plain English</text>
<text xml:space="preserve" text-anchor="middle" x="1131" y="-925.27" font-family="Arial" font-size="10.00" fill="#1f2a33">one segmented one&#45;side roadway unit;</text>
<text xml:space="preserve" text-anchor="middle" x="1131" y="-913.27" font-family="Arial" font-size="10.00" fill="#1f2a33">this is the row that receives the local flow label</text>
</g>
<!-- start&#45;&gt;rule_terms -->
<!-- filter -->
<g id="node5" class="node">
<title>filter</title>
<path fill="#eaf3f9" stroke="#3b6f8e" stroke-width="1.2" d="M923.64,-798.11C923.64,-798.11 712.36,-798.11 712.36,-798.11 706.36,-798.11 700.36,-792.11 700.36,-786.11 700.36,-786.11 700.36,-752.96 700.36,-752.96 700.36,-746.96 706.36,-740.96 712.36,-740.96 712.36,-740.96 923.64,-740.96 923.64,-740.96 929.64,-740.96 935.64,-746.96 935.64,-752.96 935.64,-752.96 935.64,-786.11 935.64,-786.11 935.64,-792.11 929.64,-798.11 923.64,-798.11"/>
<text xml:space="preserve" text-anchor="middle" x="818" y="-779.51" font-family="Arial" font-size="12.00" fill="#1f2a33">Keep only qualifying directional crashes</text>
<text xml:space="preserve" text-anchor="middle" x="818" y="-765.26" font-family="Arial" font-size="12.00" fill="#1f2a33">single&#45;vehicle + straight&#45;ahead</text>
<text xml:space="preserve" text-anchor="middle" x="818" y="-751.01" font-family="Arial" font-size="12.00" fill="#1f2a33">with one clear travel direction</text>
</g>
<!-- gather&#45;&gt;filter -->
<g id="edge2" class="edge">
<title>gather&#45;&gt;filter</title>
<path fill="none" stroke="#4e5b66" stroke-width="1.05" d="M818,-827.39C818,-827.39 818,-808.22 818,-808.22"/>
<polygon fill="#4e5b66" stroke="#4e5b66" stroke-width="1.05" points="820.87,-808.22 818,-800.02 815.13,-808.22 820.87,-808.22"/>
</g>
<!-- rule_qualifying -->
<g id="node13" class="node">
<title>rule_qualifying</title>
<path fill="#fff4e5" stroke="#d8a552" stroke-width="1.2" d="M1257.2,-878.19C1257.2,-878.19 1032.8,-878.19 1032.8,-878.19 1026.8,-878.19 1020.8,-872.19 1020.8,-866.19 1020.8,-866.19 1020.8,-832.11 1020.8,-832.11 1020.8,-826.11 1026.8,-820.11 1032.8,-820.11 1032.8,-820.11 1257.2,-820.11 1257.2,-820.11 1263.2,-820.11 1269.2,-826.11 1269.2,-832.11 1269.2,-832.11 1269.2,-866.19 1269.2,-866.19 1269.2,-872.19 1263.2,-878.19 1257.2,-878.19"/>
<text xml:space="preserve" text-anchor="middle" x="1145" y="-863.65" font-family="Arial" font-size="10.00" fill="#1f2a33">Qualifying crash in plain English</text>
<text xml:space="preserve" text-anchor="middle" x="1145" y="-851.65" font-family="Arial" font-size="10.00" fill="#1f2a33">use single&#45;vehicle, straight&#45;ahead crashes</text>
<text xml:space="preserve" text-anchor="middle" x="1145" y="-839.65" font-family="Arial" font-size="10.00" fill="#1f2a33">with one usable travel direction;</text>
<text xml:space="preserve" text-anchor="middle" x="1145" y="-827.65" font-family="Arial" font-size="10.00" fill="#1f2a33">exclude ambiguous, compound, or multi&#45;vehicle reads</text>
</g>
<!-- gather&#45;&gt;rule_qualifying -->
<!-- enough -->
<g id="node6" class="node">
<title>enough</title>
<polygon fill="#fff3d9" stroke="#d39b26" stroke-width="1.2" points="818,-718.57 638.96,-689.92 818,-661.27 997.04,-689.92 818,-718.57"/>
<text xml:space="preserve" text-anchor="middle" x="818" y="-685.65" font-family="Arial" font-size="12.00" fill="#1f2a33">At least 2 qualifying crashes?</text>
</g>
<!-- filter&#45;&gt;enough -->
<g id="edge3" class="edge">
<title>filter&#45;&gt;enough</title>
<path fill="none" stroke="#4e5b66" stroke-width="1.05" d="M818,-740.79C818,-740.79 818,-728.95 818,-728.95"/>
<polygon fill="#4e5b66" stroke="#4e5b66" stroke-width="1.05" points="820.87,-728.95 818,-720.75 815.13,-728.95 820.87,-728.95"/>
</g>
<!-- rule_support -->
<g id="node15" class="node">
<title>rule_support</title>
<path fill="#e8f7f8" stroke="#4c94a0" stroke-width="1.2" d="M1353.45,-718.96C1353.45,-718.96 1244.55,-718.96 1244.55,-718.96 1238.55,-718.96 1232.55,-712.96 1232.55,-706.96 1232.55,-706.96 1232.55,-672.88 1232.55,-672.88 1232.55,-666.88 1238.55,-660.88 1244.55,-660.88 1244.55,-660.88 1353.45,-660.88 1353.45,-660.88 1359.45,-660.88 1365.45,-666.88 1365.45,-672.88 1365.45,-672.88 1365.45,-706.96 1365.45,-706.96 1365.45,-712.96 1359.45,-718.96 1353.45,-718.96"/>
<text xml:space="preserve" text-anchor="middle" x="1299" y="-704.42" font-family="Arial" font-size="10.00" fill="#1f2a33">Secondary review readouts</text>
<text xml:space="preserve" text-anchor="middle" x="1299" y="-692.42" font-family="Arial" font-size="10.00" fill="#1f2a33">clear&#45;direction crash read</text>
<text xml:space="preserve" text-anchor="middle" x="1299" y="-680.42" font-family="Arial" font-size="10.00" fill="#1f2a33">and SingleVehicleSupport</text>
<text xml:space="preserve" text-anchor="middle" x="1299" y="-668.42" font-family="Arial" font-size="10.00" fill="#1f2a33">help review borderline rows</text>
</g>
<!-- filter&#45;&gt;rule_support -->
<g id="edge26" class="edge">
<title>filter&#45;&gt;rule_support</title>
<path fill="none" stroke="#4c94a0" stroke-width="1.05" stroke-dasharray="5,2" d="M936,-770C1064.17,-770 1250.88,-770 1250.88,-770 1250.88,-770 1250.88,-729.07 1250.88,-729.07"/>
<polygon fill="#4c94a0" stroke="#4c94a0" stroke-width="1.05" points="1253.75,-729.07 1250.88,-720.87 1248.01,-729.07 1253.75,-729.07"/>
<text xml:space="preserve" text-anchor="middle" x="1089.15" y="-773.05" font-family="Arial" font-size="11.00" fill="#4c94a0">secondary</text>
</g>
<!-- agree -->
<g id="node7" class="node">
<title>agree</title>
<polygon fill="#fff3d9" stroke="#d39b26" stroke-width="1.2" points="661,-638.88 506.71,-595.98 661,-553.08 815.29,-595.98 661,-638.88"/>
<text xml:space="preserve" text-anchor="middle" x="661" y="-598.83" font-family="Arial" font-size="12.00" fill="#1f2a33">Do all qualifying crashes</text>
<text xml:space="preserve" text-anchor="middle" x="661" y="-584.58" font-family="Arial" font-size="12.00" fill="#1f2a33">point the same way?</text>
</g>
<!-- enough&#45;&gt;agree -->
<g id="edge4" class="edge">
<title>enough&#45;&gt;agree</title>
<path fill="none" stroke="#4e5b66" stroke-width="1.05" d="M727.12,-675.24C727.12,-675.24 727.12,-630.57 727.12,-630.57"/>
<polygon fill="#4e5b66" stroke="#4e5b66" stroke-width="1.05" points="730,-630.57 727.13,-622.37 724.26,-630.57 730,-630.57"/>
<text xml:space="preserve" text-anchor="middle" x="718.5" y="-642.46" font-family="Arial" font-size="11.00">Yes</text>
</g>
<!-- unresolved -->
<g id="node11" class="node">
<title>unresolved</title>
<path fill="#e5e7eb" stroke="#7a828a" stroke-width="1.2" d="M984.52,-394.31C984.52,-394.31 817.48,-394.31 817.48,-394.31 811.48,-394.31 805.48,-388.31 805.48,-382.31 805.48,-382.31 805.48,-349.17 805.48,-349.17 805.48,-343.17 811.48,-337.17 817.48,-337.17 817.48,-337.17 984.52,-337.17 984.52,-337.17 990.52,-337.17 996.52,-343.17 996.52,-349.17 996.52,-349.17 996.52,-382.31 996.52,-382.31 996.52,-388.31 990.52,-394.31 984.52,-394.31"/>
<text xml:space="preserve" text-anchor="middle" x="901" y="-375.72" font-family="Arial" font-size="12.00" fill="#1f2a33">Unresolved</text>
<text xml:space="preserve" text-anchor="middle" x="901" y="-361.47" font-family="Arial" font-size="12.00" fill="#1f2a33">fewer than 2 qualifying crashes,</text>
<text xml:space="preserve" text-anchor="middle" x="901" y="-347.22" font-family="Arial" font-size="12.00" fill="#1f2a33">or remaining direction conflict</text>
</g>
<!-- enough&#45;&gt;unresolved -->
<g id="edge5" class="edge">
<title>enough&#45;&gt;unresolved</title>
<path fill="none" stroke="#4e5b66" stroke-width="1.05" d="M931.4,-679.13C931.4,-679.13 931.4,-404.53 931.4,-404.53"/>
<polygon fill="#4e5b66" stroke="#4e5b66" stroke-width="1.05" points="934.28,-404.53 931.41,-396.33 928.54,-404.53 934.28,-404.53"/>
<text xml:space="preserve" text-anchor="middle" x="924.28" y="-544.88" font-family="Arial" font-size="11.00">No</text>
</g>
<!-- rule_thresholds -->
<g id="node14" class="node">
<title>rule_thresholds</title>
<path fill="#fff4e5" stroke="#d8a552" stroke-width="1.2" d="M1213.08,-718.96C1213.08,-718.96 1032.92,-718.96 1032.92,-718.96 1026.92,-718.96 1020.92,-712.96 1020.92,-706.96 1020.92,-706.96 1020.92,-672.88 1020.92,-672.88 1020.92,-666.88 1026.92,-660.88 1032.92,-660.88 1032.92,-660.88 1213.08,-660.88 1213.08,-660.88 1219.08,-660.88 1225.08,-666.88 1225.08,-672.88 1225.08,-672.88 1225.08,-706.96 1225.08,-706.96 1225.08,-712.96 1219.08,-718.96 1213.08,-718.96"/>
<text xml:space="preserve" text-anchor="middle" x="1123" y="-704.42" font-family="Arial" font-size="10.00" fill="#1f2a33">Conservative evidence posture</text>
<text xml:space="preserve" text-anchor="middle" x="1123" y="-692.42" font-family="Arial" font-size="10.00" fill="#1f2a33">require at least 2 qualifying crashes;</text>
<text xml:space="preserve" text-anchor="middle" x="1123" y="-680.42" font-family="Arial" font-size="10.00" fill="#1f2a33">prefer unanimity, but allow a strong majority</text>
<text xml:space="preserve" text-anchor="middle" x="1123" y="-668.42" font-family="Arial" font-size="10.00" fill="#1f2a33">only at the 90% threshold</text>
</g>
<!-- enough&#45;&gt;rule_thresholds -->
<!-- dominant -->
<g id="node8" class="node">
<title>dominant</title>
<polygon fill="#fff3d9" stroke="#d39b26" stroke-width="1.2" points="661,-531.08 455.71,-473.93 661,-416.78 866.29,-473.93 661,-531.08"/>
<text xml:space="preserve" text-anchor="middle" x="661" y="-483.91" font-family="Arial" font-size="12.00" fill="#1f2a33">If not, is there still a strong majority</text>
<text xml:space="preserve" text-anchor="middle" x="661" y="-469.66" font-family="Arial" font-size="12.00" fill="#1f2a33">in one direction</text>
<text xml:space="preserve" text-anchor="middle" x="661" y="-455.41" font-family="Arial" font-size="12.00" fill="#1f2a33">at least 90%?</text>
</g>
<!-- agree&#45;&gt;dominant -->
<g id="edge7" class="edge">
<title>agree&#45;&gt;dominant</title>
<path fill="none" stroke="#4e5b66" stroke-width="1.05" d="M661,-552.61C661,-552.61 661,-541.25 661,-541.25"/>
<polygon fill="#4e5b66" stroke="#4e5b66" stroke-width="1.05" points="663.87,-541.25 661,-533.05 658.13,-541.25 663.87,-541.25"/>
<text xml:space="preserve" text-anchor="middle" x="653.88" y="-536.48" font-family="Arial" font-size="11.00">No</text>
</g>
<!-- strict_outcome -->
<g id="node9" class="node">
<title>strict_outcome</title>
<path fill="#cfeccf" stroke="#4d8b4d" stroke-width="1.2" d="M486.14,-394.31C486.14,-394.31 277.86,-394.31 277.86,-394.31 271.86,-394.31 265.86,-388.31 265.86,-382.31 265.86,-382.31 265.86,-349.17 265.86,-349.17 265.86,-343.17 271.86,-337.17 277.86,-337.17 277.86,-337.17 486.14,-337.17 486.14,-337.17 492.14,-337.17 498.14,-343.17 498.14,-349.17 498.14,-349.17 498.14,-382.31 498.14,-382.31 498.14,-388.31 492.14,-394.31 486.14,-394.31"/>
<text xml:space="preserve" text-anchor="middle" x="382" y="-375.72" font-family="Arial" font-size="12.00" fill="#1f2a33">StrictUnanimous</text>
<text xml:space="preserve" text-anchor="middle" x="382" y="-361.47" font-family="Arial" font-size="12.00" fill="#1f2a33">all qualifying crashes agree,</text>
<text xml:space="preserve" text-anchor="middle" x="382" y="-347.22" font-family="Arial" font-size="12.00" fill="#1f2a33">so local flow is assigned conservatively</text>
</g>
<!-- agree&#45;&gt;strict_outcome -->
<g id="edge6" class="edge">
<title>agree&#45;&gt;strict_outcome</title>
<path fill="none" stroke="#4e5b66" stroke-width="1.05" d="M504.74,-596C431.79,-596 360.78,-596 360.78,-596 360.78,-596 360.78,-404.69 360.78,-404.69"/>
<polygon fill="#4e5b66" stroke="#4e5b66" stroke-width="1.05" points="363.65,-404.69 360.78,-396.49 357.91,-404.69 363.65,-404.69"/>
<text xml:space="preserve" text-anchor="middle" x="352.16" y="-575.37" font-family="Arial" font-size="11.00">Yes</text>
</g>
<!-- empirical90_outcome -->
<g id="node10" class="node">
<title>empirical90_outcome</title>
<path fill="#ddf2d8" stroke="#5e9b58" stroke-width="1.2" d="M786.52,-394.31C786.52,-394.31 517.48,-394.31 517.48,-394.31 511.48,-394.31 505.48,-388.31 505.48,-382.31 505.48,-382.31 505.48,-349.17 505.48,-349.17 505.48,-343.17 511.48,-337.17 517.48,-337.17 517.48,-337.17 786.52,-337.17 786.52,-337.17 792.52,-337.17 798.52,-343.17 798.52,-349.17 798.52,-349.17 798.52,-382.31 798.52,-382.31 798.52,-388.31 792.52,-394.31 786.52,-394.31"/>
<text xml:space="preserve" text-anchor="middle" x="652" y="-375.72" font-family="Arial" font-size="12.00" fill="#1f2a33">Empirical90Pct</text>
<text xml:space="preserve" text-anchor="middle" x="652" y="-361.47" font-family="Arial" font-size="12.00" fill="#1f2a33">one direction holds a strong majority,</text>
<text xml:space="preserve" text-anchor="middle" x="652" y="-347.22" font-family="Arial" font-size="12.00" fill="#1f2a33">so local flow is assigned with a bounded relaxation</text>
</g>
<!-- dominant&#45;&gt;empirical90_outcome -->
<g id="edge8" class="edge">
<title>dominant&#45;&gt;empirical90_outcome</title>
<path fill="none" stroke="#4e5b66" stroke-width="1.05" d="M652,-418.88C652,-418.88 652,-404.5 652,-404.5"/>
<polygon fill="#4e5b66" stroke="#4e5b66" stroke-width="1.05" points="654.87,-404.5 652,-396.3 649.13,-404.5 654.87,-404.5"/>
<text xml:space="preserve" text-anchor="middle" x="643.38" y="-401.24" font-family="Arial" font-size="11.00">Yes</text>
</g>
<!-- dominant&#45;&gt;unresolved -->
<g id="edge9" class="edge">
<title>dominant&#45;&gt;unresolved</title>
<path fill="none" stroke="#4e5b66" stroke-width="1.05" d="M835.88,-465.08C835.88,-465.08 835.88,-404.26 835.88,-404.26"/>
<polygon fill="#4e5b66" stroke="#4e5b66" stroke-width="1.05" points="838.76,-404.26 835.89,-396.06 833.02,-404.26 838.76,-404.26"/>
<text xml:space="preserve" text-anchor="middle" x="828.76" y="-437.72" font-family="Arial" font-size="11.00">No</text>
</g>
<!-- strict_outcome&#45;&gt;empirical90_outcome -->
<!-- out_main -->
<g id="node17" class="node">
<title>out_main</title>
<path fill="#eaf3f9" stroke="#3b6f8e" stroke-width="1.2" d="M797.59,-273.95C797.59,-273.95 484.41,-273.95 484.41,-273.95 478.41,-273.95 472.41,-267.95 472.41,-261.95 472.41,-261.95 472.41,-213.11 472.41,-213.11 472.41,-207.11 478.41,-201.11 484.41,-201.11 484.41,-201.11 797.59,-201.11 797.59,-201.11 803.59,-201.11 809.59,-207.11 809.59,-213.11 809.59,-213.11 809.59,-261.95 809.59,-261.95 809.59,-267.95 803.59,-273.95 797.59,-273.95"/>
<text xml:space="preserve" text-anchor="middle" x="641" y="-254.63" font-family="Arial" font-size="12.00" fill="#1f2a33">Row&#45;level flow result</text>
<text xml:space="preserve" text-anchor="middle" x="641" y="-240.38" font-family="Arial" font-size="12.00" fill="#1f2a33">StrictUnanimous = unanimous qualifying crash evidence</text>
<text xml:space="preserve" text-anchor="middle" x="641" y="-226.13" font-family="Arial" font-size="12.00" fill="#1f2a33">Empirical90Pct = strong&#45;majority qualifying crash evidence</text>
<text xml:space="preserve" text-anchor="middle" x="641" y="-211.88" font-family="Arial" font-size="12.00" fill="#1f2a33">Unresolved = evidence too thin or still conflicting</text>
</g>
<!-- strict_outcome&#45;&gt;out_main -->
<g id="edge16" class="edge">
<title>strict_outcome&#45;&gt;out_main</title>
<path fill="none" stroke="#4e5b66" stroke-width="1.05" d="M480.99,-336.65C480.99,-336.65 480.99,-284.11 480.99,-284.11"/>
<polygon fill="#4e5b66" stroke="#4e5b66" stroke-width="1.05" points="483.86,-284.11 480.99,-275.91 478.12,-284.11 483.86,-284.11"/>
</g>
<!-- output_anchor -->
<!-- strict_outcome&#45;&gt;output_anchor -->
<!-- empirical90_outcome&#45;&gt;unresolved -->
<!-- empirical90_outcome&#45;&gt;out_main -->
<g id="edge17" class="edge">
<title>empirical90_outcome&#45;&gt;out_main</title>
<path fill="none" stroke="#4e5b66" stroke-width="1.05" d="M720.26,-336.65C720.26,-336.65 720.26,-284.11 720.26,-284.11"/>
<polygon fill="#4e5b66" stroke="#4e5b66" stroke-width="1.05" points="723.13,-284.11 720.26,-275.91 717.39,-284.11 723.13,-284.11"/>
</g>
<!-- empirical90_outcome&#45;&gt;output_anchor -->
<!-- rule_fallback -->
<g id="node16" class="node">
<title>rule_fallback</title>
<path fill="#ddf3f5" stroke="#4c94a0" stroke-width="1.2" d="M1263.58,-394.78C1263.58,-394.78 1122.42,-394.78 1122.42,-394.78 1116.42,-394.78 1110.42,-388.78 1110.42,-382.78 1110.42,-382.78 1110.42,-348.7 1110.42,-348.7 1110.42,-342.7 1116.42,-336.7 1122.42,-336.7 1122.42,-336.7 1263.58,-336.7 1263.58,-336.7 1269.58,-336.7 1275.58,-342.7 1275.58,-348.7 1275.58,-348.7 1275.58,-382.78 1275.58,-382.78 1275.58,-388.78 1269.58,-394.78 1263.58,-394.78"/>
<text xml:space="preserve" text-anchor="middle" x="1193" y="-380.24" font-family="Arial" font-size="10.00" fill="#1f2a33">RouteNameFallback</text>
<text xml:space="preserve" text-anchor="middle" x="1193" y="-368.24" font-family="Arial" font-size="10.00" fill="#1f2a33">road&#45;name context for review only;</text>
<text xml:space="preserve" text-anchor="middle" x="1193" y="-356.24" font-family="Arial" font-size="10.00" fill="#1f2a33">used only after unresolved,</text>
<text xml:space="preserve" text-anchor="middle" x="1193" y="-344.24" font-family="Arial" font-size="10.00" fill="#1f2a33">and never as an override</text>
</g>
<!-- unresolved&#45;&gt;rule_fallback -->
<g id="edge27" class="edge">
<title>unresolved&#45;&gt;rule_fallback</title>
<path fill="none" stroke="#4c94a0" stroke-width="1.05" stroke-dasharray="5,2" d="M997.02,-366C997.02,-366 1100.37,-366 1100.37,-366"/>
<polygon fill="#4c94a0" stroke="#4c94a0" stroke-width="1.05" points="1100.37,-368.87 1108.57,-366 1100.37,-363.13 1100.37,-368.87"/>
<text xml:space="preserve" text-anchor="middle" x="1075.69" y="-369.05" font-family="Arial" font-size="11.00" fill="#4c94a0">review only</text>
</g>
<!-- unresolved&#45;&gt;out_main -->
<g id="edge18" class="edge">
<title>unresolved&#45;&gt;out_main</title>
<path fill="none" stroke="#4e5b66" stroke-width="1.05" d="M934.21,-336.75C934.21,-299.07 934.21,-238 934.21,-238 934.21,-238 819.65,-238 819.65,-238"/>
<polygon fill="#4e5b66" stroke="#4e5b66" stroke-width="1.05" points="819.65,-235.13 811.45,-238 819.65,-240.87 819.65,-235.13"/>
</g>
<!-- unresolved&#45;&gt;output_anchor -->
<!-- rule_support&#45;&gt;rule_fallback -->
<g id="edge28" class="edge">
<title>rule_support&#45;&gt;rule_fallback</title>
<path fill="none" stroke="#4c94a0" stroke-width="1.05" stroke-dasharray="5,2" d="M1254.06,-660.29C1254.06,-598.55 1254.06,-456.76 1254.06,-395.18"/>
</g>
<!-- out_review -->
<g id="node19" class="node">
<title>out_review</title>
<path fill="#fff4e5" stroke="#d8a552" stroke-width="1.2" d="M716.39,-75.52C716.39,-75.52 565.61,-75.52 565.61,-75.52 559.61,-75.52 553.61,-69.52 553.61,-63.52 553.61,-63.52 553.61,-28 553.61,-28 553.61,-22 559.61,-16 565.61,-16 565.61,-16 716.39,-16 716.39,-16 722.39,-16 728.39,-22 728.39,-28 728.39,-28 728.39,-63.52 728.39,-63.52 728.39,-69.52 722.39,-75.52 716.39,-75.52"/>
<text xml:space="preserve" text-anchor="middle" x="641" y="-60.26" font-family="Arial" font-size="10.00" fill="#1f2a33">Review posture</text>
<text xml:space="preserve" text-anchor="middle" x="641" y="-48.26" font-family="Arial" font-size="10.00" fill="#1f2a33">unresolved stays unresolved;</text>
<text xml:space="preserve" text-anchor="middle" x="641" y="-36.26" font-family="Arial" font-size="10.00" fill="#1f2a33">secondary context helps review,</text>
<text xml:space="preserve" text-anchor="middle" x="641" y="-24.26" font-family="Arial" font-size="10.00" fill="#1f2a33">but does not replace crash evidence</text>
</g>
<!-- rule_fallback&#45;&gt;out_review -->
<g id="edge29" class="edge">
<title>rule_fallback&#45;&gt;out_review</title>
<path fill="none" stroke="#4c94a0" stroke-width="1.05" stroke-dasharray="5,2" d="M1193,-336.23C1193,-257.08 1193,-46 1193,-46 1193,-46 884.52,-46 728.77,-46"/>
</g>
<!-- out_handoff -->
<g id="node18" class="node">
<title>out_handoff</title>
<path fill="#ddf3f5" stroke="#4c94a0" stroke-width="1.2" d="M759.71,-179.11C759.71,-179.11 522.29,-179.11 522.29,-179.11 516.29,-179.11 510.29,-173.11 510.29,-167.11 510.29,-167.11 510.29,-132.52 510.29,-132.52 510.29,-126.52 516.29,-120.52 522.29,-120.52 522.29,-120.52 759.71,-120.52 759.71,-120.52 765.71,-120.52 771.71,-126.52 771.71,-132.52 771.71,-132.52 771.71,-167.11 771.71,-167.11 771.71,-173.11 765.71,-179.11 759.71,-179.11"/>
<text xml:space="preserve" text-anchor="middle" x="641" y="-159.79" font-family="Arial" font-size="12.00" fill="#1f2a33">Meaning for later work</text>
<text xml:space="preserve" text-anchor="middle" x="641" y="-145.54" font-family="Arial" font-size="12.00" fill="#1f2a33">this becomes row&#45;level directed flow support</text>
<text xml:space="preserve" text-anchor="middle" x="641" y="-131.29" font-family="Arial" font-size="12.00" fill="#1f2a33">for the signal&#45;centered crash workflow</text>
</g>
<!-- out_main&#45;&gt;out_handoff -->
<g id="edge10" class="edge">
<title>out_main&#45;&gt;out_handoff</title>
<path fill="none" stroke="#4e5b66" stroke-width="1.05" d="M641,-200.59C641,-200.59 641,-189.32 641,-189.32"/>
<polygon fill="#4e5b66" stroke="#4e5b66" stroke-width="1.05" points="643.87,-189.32 641,-181.12 638.13,-189.32 643.87,-189.32"/>
</g>
<!-- out_handoff&#45;&gt;out_review -->
<!-- output_anchor&#45;&gt;out_main -->
</g>
</svg>
