<?xml version="1.0" encoding="UTF-8" standalone="no"?>
<!DOCTYPE svg PUBLIC "-//W3C//DTD SVG 1.1//EN"
 "http://www.w3.org/Graphics/SVG/1.1/DTD/svg11.dtd">
<!-- Generated by graphviz version 14.1.5 (20260411.2331)
 -->
<!-- Title: upstream_downstream_decision_diagram Pages: 1 -->
<svg width="1050pt" height="1597pt"
 viewBox="0.00 0.00 1050.00 1597.00" xmlns="http://www.w3.org/2000/svg" xmlns:xlink="http://www.w3.org/1999/xlink">
<g id="graph0" class="graph" transform="scale(1 1) rotate(0) translate(5.76 1591.4)">
<title>upstream_downstream_decision_diagram</title>
<polygon fill="white" stroke="none" points="-5.76,5.76 -5.76,-1591.4 1044.26,-1591.4 1044.26,5.76 -5.76,5.76"/>
<text xml:space="preserve" text-anchor="start" x="186.62" y="-1561.64" font-family="Arial" font-weight="bold" font-size="20.00">Signal&#45;Centered Upstream/Downstream Crash Classification Workflow</text>
<text xml:space="preserve" text-anchor="start" x="10" y="-1542.39" font-family="Arial" font-size="13.00">For a crash near one signal, can the crash be placed before or after the signal along travel direction, or should it stay unresolved under the current conservative prototype?</text>
<g id="clust1" class="cluster">
<title>cluster_starts</title>
<path fill="#fff9f0" stroke="#e9d3af" d="M35.25,-1290.5C35.25,-1290.5 205.25,-1290.5 205.25,-1290.5 211.25,-1290.5 217.25,-1296.5 217.25,-1302.5 217.25,-1302.5 217.25,-1511.11 217.25,-1511.11 217.25,-1517.11 211.25,-1523.11 205.25,-1523.11 205.25,-1523.11 35.25,-1523.11 35.25,-1523.11 29.25,-1523.11 23.25,-1517.11 23.25,-1511.11 23.25,-1511.11 23.25,-1302.5 23.25,-1302.5 23.25,-1296.5 29.25,-1290.5 35.25,-1290.5"/>
<text xml:space="preserve" text-anchor="middle" x="120.25" y="-1505.81" font-family="Arial" font-size="14.00">Inputs / Starts Here</text>
</g>
<g id="clust2" class="cluster">
<title>cluster_spine</title>
<path fill="#ffffff" stroke="#d7e2ea" stroke-width="1.1" d="M237.25,-269.45C237.25,-269.45 765.25,-269.45 765.25,-269.45 771.25,-269.45 777.25,-275.45 777.25,-281.45 777.25,-281.45 777.25,-1508.8 777.25,-1508.8 777.25,-1514.8 771.25,-1520.8 765.25,-1520.8 765.25,-1520.8 237.25,-1520.8 237.25,-1520.8 231.25,-1520.8 225.25,-1514.8 225.25,-1508.8 225.25,-1508.8 225.25,-281.45 225.25,-281.45 225.25,-275.45 231.25,-269.45 237.25,-269.45"/>
<text xml:space="preserve" text-anchor="middle" x="501.25" y="-1503.5" font-family="Arial" font-size="14.00">Main Classification Spine</text>
</g>
<g id="clust3" class="cluster">
<title>cluster_rules</title>
<path fill="#fff9f0" stroke="#e9d3af" stroke-width="0.95" d="M797.25,-568.7C797.25,-568.7 1003.25,-568.7 1003.25,-568.7 1009.25,-568.7 1015.25,-574.7 1015.25,-580.7 1015.25,-580.7 1015.25,-1513.39 1015.25,-1513.39 1015.25,-1519.39 1009.25,-1525.39 1003.25,-1525.39 1003.25,-1525.39 797.25,-1525.39 797.25,-1525.39 791.25,-1525.39 785.25,-1519.39 785.25,-1513.39 785.25,-1513.39 785.25,-580.7 785.25,-580.7 785.25,-574.7 791.25,-568.7 797.25,-568.7"/>
<text xml:space="preserve" text-anchor="middle" x="900.25" y="-1508.09" font-family="Arial" font-size="14.00">Definitions / Prototype Mechanics</text>
</g>
<g id="clust4" class="cluster">
<title>cluster_outputs</title>
<path fill="#fff9f0" stroke="#e9d3af" stroke-width="1.1" d="M231.25,-8C231.25,-8 735.25,-8 735.25,-8 741.25,-8 747.25,-14 747.25,-20 747.25,-20 747.25,-240.45 747.25,-240.45 747.25,-246.45 741.25,-252.45 735.25,-252.45 735.25,-252.45 231.25,-252.45 231.25,-252.45 225.25,-252.45 219.25,-246.45 219.25,-240.45 219.25,-240.45 219.25,-20 219.25,-20 219.25,-14 225.25,-8 231.25,-8"/>
<text xml:space="preserve" text-anchor="middle" x="483.25" y="-235.15" font-family="Arial" font-size="14.00">Outputs / Review</text>
</g>
<!-- input_scope -->
<g id="node1" class="node">
<title>input_scope</title>
<path fill="#fff4e5" stroke="#d8a552" stroke-width="1.2" d="M197.14,-1491.36C197.14,-1491.36 43.36,-1491.36 43.36,-1491.36 37.36,-1491.36 31.36,-1485.36 31.36,-1479.36 31.36,-1479.36 31.36,-1455.84 31.36,-1455.84 31.36,-1449.84 37.36,-1443.84 43.36,-1443.84 43.36,-1443.84 197.14,-1443.84 197.14,-1443.84 203.14,-1443.84 209.14,-1449.84 209.14,-1455.84 209.14,-1455.84 209.14,-1479.36 209.14,-1479.36 209.14,-1485.36 203.14,-1491.36 197.14,-1491.36"/>
<text xml:space="preserve" text-anchor="middle" x="120.25" y="-1476.1" font-family="Arial" font-size="10.00" fill="#1f2a33">Starting point</text>
<text xml:space="preserve" text-anchor="middle" x="120.25" y="-1464.1" font-family="Arial" font-size="10.00" fill="#1f2a33">signals, study rows, crashes,</text>
<text xml:space="preserve" text-anchor="middle" x="120.25" y="-1452.1" font-family="Arial" font-size="10.00" fill="#1f2a33">and row&#45;level local flow already exist</text>
</g>
<!-- start -->
<g id="node3" class="node">
<title>start</title>
<path fill="#eaf3f9" stroke="#3b6f8e" stroke-width="1.2" d="M487.05,-1489.05C487.05,-1489.05 345.45,-1489.05 345.45,-1489.05 339.45,-1489.05 333.45,-1483.05 333.45,-1477.05 333.45,-1477.05 333.45,-1458.15 333.45,-1458.15 333.45,-1452.15 339.45,-1446.15 345.45,-1446.15 345.45,-1446.15 487.05,-1446.15 487.05,-1446.15 493.05,-1446.15 499.05,-1452.15 499.05,-1458.15 499.05,-1458.15 499.05,-1477.05 499.05,-1477.05 499.05,-1483.05 493.05,-1489.05 487.05,-1489.05"/>
<text xml:space="preserve" text-anchor="middle" x="416.25" y="-1470.45" font-family="Arial" font-size="12.00" fill="#1f2a33">Review one signal</text>
<text xml:space="preserve" text-anchor="middle" x="416.25" y="-1456.2" font-family="Arial" font-size="12.00" fill="#1f2a33">and nearby crashes</text>
</g>
<!-- input_scope&#45;&gt;start -->
<!-- input_context -->
<g id="node2" class="node">
<title>input_context</title>
<path fill="#fff4e5" stroke="#d8a552" stroke-width="1.2" d="M197.26,-1358.02C197.26,-1358.02 83.24,-1358.02 83.24,-1358.02 77.24,-1358.02 71.23,-1352.02 71.23,-1346.02 71.23,-1346.02 71.23,-1310.5 71.23,-1310.5 71.23,-1304.5 77.23,-1298.5 83.23,-1298.5 83.23,-1298.5 197.26,-1298.5 197.26,-1298.5 203.26,-1298.5 209.26,-1304.5 209.26,-1310.5 209.26,-1310.5 209.26,-1346.02 209.26,-1346.02 209.26,-1352.02 203.26,-1358.02 197.26,-1358.02"/>
<text xml:space="preserve" text-anchor="middle" x="140.25" y="-1342.76" font-family="Arial" font-size="10.00" fill="#1f2a33">Context already available</text>
<text xml:space="preserve" text-anchor="middle" x="140.25" y="-1330.76" font-family="Arial" font-size="10.00" fill="#1f2a33">nearest&#45;row signal context,</text>
<text xml:space="preserve" text-anchor="middle" x="140.25" y="-1318.76" font-family="Arial" font-size="10.00" fill="#1f2a33">route&#45;ready crash locations,</text>
<text xml:space="preserve" text-anchor="middle" x="140.25" y="-1306.76" font-family="Arial" font-size="10.00" fill="#1f2a33">and posted speed</text>
</g>
<!-- speed -->
<g id="node7" class="node">
<title>speed</title>
<path fill="#eaf3f9" stroke="#3b6f8e" stroke-width="1.2" d="M487.05,-1272.36C487.05,-1272.36 345.45,-1272.36 345.45,-1272.36 339.45,-1272.36 333.45,-1266.36 333.45,-1260.36 333.45,-1260.36 333.45,-1241.46 333.45,-1241.46 333.45,-1235.46 339.45,-1229.46 345.45,-1229.46 345.45,-1229.46 487.05,-1229.46 487.05,-1229.46 493.05,-1229.46 499.05,-1235.46 499.05,-1241.46 499.05,-1241.46 499.05,-1260.36 499.05,-1260.36 499.05,-1266.36 493.05,-1272.36 487.05,-1272.36"/>
<text xml:space="preserve" text-anchor="middle" x="416.25" y="-1253.76" font-family="Arial" font-size="12.00" fill="#1f2a33">Set the speed&#45;informed</text>
<text xml:space="preserve" text-anchor="middle" x="416.25" y="-1239.51" font-family="Arial" font-size="12.00" fill="#1f2a33">approach length</text>
</g>
<!-- input_context&#45;&gt;speed -->
<!-- phase1_hdr -->
<g id="node4" class="node">
<title>phase1_hdr</title>
<path fill="#eaf3f9" stroke="none" stroke-width="1.2" d="M496.93,-1428.56C496.93,-1428.56 335.57,-1428.56 335.57,-1428.56 329.57,-1428.56 323.57,-1422.56 323.57,-1416.56 323.57,-1416.56 323.57,-1396.16 323.57,-1396.16 323.57,-1390.16 329.57,-1384.16 335.57,-1384.16 335.57,-1384.16 496.93,-1384.16 496.93,-1384.16 502.93,-1384.16 508.93,-1390.16 508.93,-1396.16 508.93,-1396.16 508.93,-1416.56 508.93,-1416.56 508.93,-1422.56 502.93,-1428.56 496.93,-1428.56"/>
<text xml:space="preserve" text-anchor="start" x="395.62" y="-1409.91" font-family="Arial" font-weight="bold" font-size="11.00" fill="#1f2a33">Phase 1</text>
<text xml:space="preserve" text-anchor="start" x="336.38" y="-1395.61" font-family="Arial" font-size="9.00" fill="#1f2a33">screen, route, and row&#45;direction checks</text>
</g>
<!-- start&#45;&gt;phase1_hdr -->
<!-- eligible -->
<g id="node5" class="node">
<title>eligible</title>
<polygon fill="#fff3d9" stroke="#d39b26" stroke-width="1.2" points="416.25,-1371.16 234.9,-1328.26 416.25,-1285.36 597.6,-1328.26 416.25,-1371.16"/>
<text xml:space="preserve" text-anchor="middle" x="416.25" y="-1331.11" font-family="Arial" font-size="12.00" fill="#1f2a33">Inside current prototype scope</text>
<text xml:space="preserve" text-anchor="middle" x="416.25" y="-1316.86" font-family="Arial" font-size="12.00" fill="#1f2a33">with usable row&#45;level flow?</text>
</g>
<!-- start&#45;&gt;eligible -->
<g id="edge1" class="edge">
<title>start&#45;&gt;eligible</title>
<path fill="none" stroke="#4e5b66" stroke-width="1.05" d="M499.5,-1460C528.2,-1460 553.26,-1460 553.26,-1460 553.26,-1460 553.26,-1348.83 553.26,-1348.83"/>
<polygon fill="#4e5b66" stroke="#4e5b66" stroke-width="1.05" points="556.13,-1348.83 553.26,-1340.63 550.39,-1348.83 556.13,-1348.83"/>
</g>
<!-- rule_signal -->
<g id="node25" class="node">
<title>rule_signal</title>
<path fill="#fff4e5" stroke="#d8a552" stroke-width="1.2" d="M979.33,-1493.64C979.33,-1493.64 805.17,-1493.64 805.17,-1493.64 799.17,-1493.64 793.17,-1487.64 793.17,-1481.64 793.17,-1481.64 793.17,-1453.56 793.17,-1453.56 793.17,-1447.56 799.17,-1441.56 805.17,-1441.56 805.17,-1441.56 979.33,-1441.56 979.33,-1441.56 985.33,-1441.56 991.33,-1447.56 991.33,-1453.56 991.33,-1453.56 991.33,-1481.64 991.33,-1481.64 991.33,-1487.64 985.33,-1493.64 979.33,-1493.64"/>
<text xml:space="preserve" text-anchor="middle" x="892.25" y="-1480.05" font-family="Arial" font-size="9.00" fill="#1f2a33">Prototype scope and same&#45;route meaning</text>
<text xml:space="preserve" text-anchor="middle" x="892.25" y="-1469.55" font-family="Arial" font-size="9.00" fill="#1f2a33">use signals whose nearest row already has</text>
<text xml:space="preserve" text-anchor="middle" x="892.25" y="-1459.05" font-family="Arial" font-size="9.00" fill="#1f2a33">StrictUnanimous or Empirical90Pct flow;</text>
<text xml:space="preserve" text-anchor="middle" x="892.25" y="-1448.55" font-family="Arial" font-size="9.00" fill="#1f2a33">crash and signal must stay on the same route</text>
</g>
<!-- start&#45;&gt;rule_signal -->
<!-- phase1_hdr&#45;&gt;eligible -->
<!-- excluded_signal -->
<g id="node6" class="node">
<title>excluded_signal</title>
<path fill="#e5e7eb" stroke="#7a828a" stroke-width="1.2" d="M757.05,-1349.71C757.05,-1349.71 615.45,-1349.71 615.45,-1349.71 609.45,-1349.71 603.45,-1343.71 603.45,-1337.71 603.45,-1337.71 603.45,-1318.81 603.45,-1318.81 603.45,-1312.81 609.45,-1306.81 615.45,-1306.81 615.45,-1306.81 757.05,-1306.81 757.05,-1306.81 763.05,-1306.81 769.05,-1312.81 769.05,-1318.81 769.05,-1318.81 769.05,-1337.71 769.05,-1337.71 769.05,-1343.71 763.05,-1349.71 757.05,-1349.71"/>
<text xml:space="preserve" text-anchor="middle" x="686.25" y="-1331.11" font-family="Arial" font-size="12.00" fill="#1f2a33">Outside prototype scope</text>
<text xml:space="preserve" text-anchor="middle" x="686.25" y="-1316.86" font-family="Arial" font-size="12.00" fill="#1f2a33">or missing required setup</text>
</g>
<!-- eligible&#45;&gt;excluded_signal -->
<g id="edge3" class="edge">
<title>eligible&#45;&gt;excluded_signal</title>
<path fill="none" stroke="#4e5b66" stroke-width="1.05" d="M598.96,-1328C598.96,-1328 599.36,-1328 599.36,-1328"/>
<polygon fill="#4e5b66" stroke="#4e5b66" stroke-width="1.05" points="593.11,-1330.87 601.31,-1328 593.11,-1325.13 593.11,-1330.87"/>
<text xml:space="preserve" text-anchor="middle" x="599.16" y="-1317.55" font-family="Arial" font-size="11.00">No</text>
</g>
<!-- eligible&#45;&gt;speed -->
<g id="edge2" class="edge">
<title>eligible&#45;&gt;speed</title>
<path fill="none" stroke="#4e5b66" stroke-width="1.05" d="M416.25,-1285.06C416.25,-1285.06 416.25,-1282.42 416.25,-1282.42"/>
<polygon fill="#4e5b66" stroke="#4e5b66" stroke-width="1.05" points="419.12,-1282.42 416.25,-1274.22 413.38,-1282.42 419.12,-1282.42"/>
<text xml:space="preserve" text-anchor="middle" x="407.62" y="-1273.29" font-family="Arial" font-size="11.00">Yes</text>
</g>
<!-- study_area -->
<g id="node8" class="node">
<title>study_area</title>
<path fill="#eaf3f9" stroke="#3b6f8e" stroke-width="1.2" d="M529.3,-1211.87C529.3,-1211.87 365.2,-1211.87 365.2,-1211.87 359.2,-1211.87 353.2,-1205.87 353.2,-1199.87 353.2,-1199.87 353.2,-1180.97 353.2,-1180.97 353.2,-1174.97 359.2,-1168.97 365.2,-1168.97 365.2,-1168.97 529.3,-1168.97 529.3,-1168.97 535.3,-1168.97 541.3,-1174.97 541.3,-1180.97 541.3,-1180.97 541.3,-1199.87 541.3,-1199.87 541.3,-1205.87 535.3,-1211.87 529.3,-1211.87"/>
<text xml:space="preserve" text-anchor="middle" x="447.25" y="-1193.27" font-family="Arial" font-size="12.00" fill="#1f2a33">Build a near&#45;signal search area</text>
<text xml:space="preserve" text-anchor="middle" x="447.25" y="-1179.02" font-family="Arial" font-size="12.00" fill="#1f2a33">on the same route</text>
</g>
<!-- speed&#45;&gt;study_area -->
<g id="edge4" class="edge">
<title>speed&#45;&gt;study_area</title>
<path fill="none" stroke="#4e5b66" stroke-width="1.05" d="M426.12,-1229.07C426.12,-1229.07 426.12,-1222.22 426.12,-1222.22"/>
<polygon fill="#4e5b66" stroke="#4e5b66" stroke-width="1.05" points="429,-1222.22 426.13,-1214.02 423.26,-1222.22 429,-1222.22"/>
</g>
<!-- admit -->
<g id="node9" class="node">
<title>admit</title>
<path fill="#eaf3f9" stroke="#3b6f8e" stroke-width="1.2" d="M518.05,-1151.38C518.05,-1151.38 376.45,-1151.38 376.45,-1151.38 370.45,-1151.38 364.45,-1145.38 364.45,-1139.38 364.45,-1139.38 364.45,-1120.48 364.45,-1120.48 364.45,-1114.48 370.45,-1108.48 376.45,-1108.48 376.45,-1108.48 518.05,-1108.48 518.05,-1108.48 524.05,-1108.48 530.05,-1114.48 530.05,-1120.48 530.05,-1120.48 530.05,-1139.38 530.05,-1139.38 530.05,-1145.38 524.05,-1151.38 518.05,-1151.38"/>
<text xml:space="preserve" text-anchor="middle" x="447.25" y="-1132.78" font-family="Arial" font-size="12.00" fill="#1f2a33">Keep only crashes inside</text>
<text xml:space="preserve" text-anchor="middle" x="447.25" y="-1118.53" font-family="Arial" font-size="12.00" fill="#1f2a33">that local search area</text>
</g>
<!-- study_area&#45;&gt;admit -->
<g id="edge5" class="edge">
<title>study_area&#45;&gt;admit</title>
<path fill="none" stroke="#4e5b66" stroke-width="1.05" d="M447.25,-1168.58C447.25,-1168.58 447.25,-1161.73 447.25,-1161.73"/>
<polygon fill="#4e5b66" stroke="#4e5b66" stroke-width="1.05" points="450.12,-1161.73 447.25,-1153.53 444.38,-1161.73 450.12,-1161.73"/>
</g>
<!-- rule_area -->
<g id="node26" class="node">
<title>rule_area</title>
<path fill="#fff4e5" stroke="#d8a552" stroke-width="1.2" d="M988.83,-1216.46C988.83,-1216.46 805.67,-1216.46 805.67,-1216.46 799.67,-1216.46 793.67,-1210.46 793.67,-1204.46 793.67,-1204.46 793.67,-1176.38 793.67,-1176.38 793.67,-1170.38 799.67,-1164.38 805.67,-1164.38 805.67,-1164.38 988.83,-1164.38 988.83,-1164.38 994.83,-1164.38 1000.83,-1170.38 1000.83,-1176.38 1000.83,-1176.38 1000.83,-1204.46 1000.83,-1204.46 1000.83,-1210.46 994.83,-1216.46 988.83,-1216.46"/>
<text xml:space="preserve" text-anchor="middle" x="897.25" y="-1202.87" font-family="Arial" font-size="9.00" fill="#1f2a33">Local search area</text>
<text xml:space="preserve" text-anchor="middle" x="897.25" y="-1192.37" font-family="Arial" font-size="9.00" fill="#1f2a33">near&#45;signal geometry on the same route,</text>
<text xml:space="preserve" text-anchor="middle" x="897.25" y="-1181.87" font-family="Arial" font-size="9.00" fill="#1f2a33">clipped to the speed&#45;informed approach length,</text>
<text xml:space="preserve" text-anchor="middle" x="897.25" y="-1171.37" font-family="Arial" font-size="9.00" fill="#1f2a33">then buffered and connected by a small hub</text>
</g>
<!-- study_area&#45;&gt;rule_area -->
<!-- associate -->
<g id="node10" class="node">
<title>associate</title>
<polygon fill="#fff3d9" stroke="#d39b26" stroke-width="1.2" points="447.25,-1095.48 291.4,-1038.33 447.25,-981.18 603.1,-1038.33 447.25,-1095.48"/>
<text xml:space="preserve" text-anchor="middle" x="447.25" y="-1048.31" font-family="Arial" font-size="12.00" fill="#1f2a33">Clear same&#45;route match?</text>
<text xml:space="preserve" text-anchor="middle" x="447.25" y="-1034.06" font-family="Arial" font-size="12.00" fill="#1f2a33">Crash and signal remain</text>
<text xml:space="preserve" text-anchor="middle" x="447.25" y="-1019.81" font-family="Arial" font-size="12.00" fill="#1f2a33">on one route</text>
</g>
<!-- admit&#45;&gt;associate -->
<g id="edge6" class="edge">
<title>admit&#45;&gt;associate</title>
<path fill="none" stroke="#4e5b66" stroke-width="1.05" d="M447.25,-1108.22C447.25,-1108.22 447.25,-1105.81 447.25,-1105.81"/>
<polygon fill="#4e5b66" stroke="#4e5b66" stroke-width="1.05" points="450.12,-1105.81 447.25,-1097.61 444.38,-1105.81 450.12,-1105.81"/>
</g>
<!-- attach -->
<g id="node11" class="node">
<title>attach</title>
<path fill="#eaf3f9" stroke="#3b6f8e" stroke-width="1.2" d="M518.05,-968.18C518.05,-968.18 376.45,-968.18 376.45,-968.18 370.45,-968.18 364.45,-962.18 364.45,-956.18 364.45,-956.18 364.45,-937.28 364.45,-937.28 364.45,-931.28 370.45,-925.28 376.45,-925.28 376.45,-925.28 518.05,-925.28 518.05,-925.28 524.05,-925.28 530.05,-931.28 530.05,-937.28 530.05,-937.28 530.05,-956.18 530.05,-956.18 530.05,-962.18 524.05,-968.18 518.05,-968.18"/>
<text xml:space="preserve" text-anchor="middle" x="447.25" y="-949.58" font-family="Arial" font-size="12.00" fill="#1f2a33">Attach the crash to the</text>
<text xml:space="preserve" text-anchor="middle" x="447.25" y="-935.33" font-family="Arial" font-size="12.00" fill="#1f2a33">selected signal row</text>
</g>
<!-- associate&#45;&gt;attach -->
<g id="edge7" class="edge">
<title>associate&#45;&gt;attach</title>
<path fill="none" stroke="#4e5b66" stroke-width="1.05" d="M447.25,-980.58C447.25,-980.58 447.25,-978.51 447.25,-978.51"/>
<polygon fill="#4e5b66" stroke="#4e5b66" stroke-width="1.05" points="450.12,-978.51 447.25,-970.31 444.38,-978.51 450.12,-978.51"/>
<text xml:space="preserve" text-anchor="middle" x="438.62" y="-969.09" font-family="Arial" font-size="11.00">Yes</text>
</g>
<!-- fail_lane_1 -->
<!-- associate&#45;&gt;fail_lane_1 -->
<g id="edge23" class="edge">
<title>associate&#45;&gt;fail_lane_1</title>
<path fill="none" stroke="#4e5b66" stroke-width="1.05" d="M566.58,-1024.46C566.58,-998.91 566.58,-947 566.58,-947 566.58,-947 662.78,-947 662.78,-947"/>
<polygon fill="#4e5b66" stroke="#4e5b66" stroke-width="1.05" points="662.78,-949.87 670.98,-947 662.78,-944.13 662.78,-949.87"/>
<text xml:space="preserve" text-anchor="middle" x="568.82" y="-950.05" font-family="Arial" font-size="11.00">No</text>
</g>
<!-- attachment_ok -->
<g id="node12" class="node">
<title>attachment_ok</title>
<polygon fill="#fff3d9" stroke="#d39b26" stroke-width="1.2" points="447.25,-912.28 242.65,-855.13 447.25,-797.98 651.85,-855.13 447.25,-912.28"/>
<text xml:space="preserve" text-anchor="middle" x="447.25" y="-865.11" font-family="Arial" font-size="12.00" fill="#1f2a33">Credible crash&#45;to&#45;row attachment?</text>
<text xml:space="preserve" text-anchor="middle" x="447.25" y="-850.86" font-family="Arial" font-size="12.00" fill="#1f2a33">Close enough to the chosen row</text>
<text xml:space="preserve" text-anchor="middle" x="447.25" y="-836.61" font-family="Arial" font-size="12.00" fill="#1f2a33">and signal context</text>
</g>
<!-- attach&#45;&gt;attachment_ok -->
<g id="edge8" class="edge">
<title>attach&#45;&gt;attachment_ok</title>
<path fill="none" stroke="#4e5b66" stroke-width="1.05" d="M447.25,-925.02C447.25,-925.02 447.25,-922.61 447.25,-922.61"/>
<polygon fill="#4e5b66" stroke="#4e5b66" stroke-width="1.05" points="450.12,-922.61 447.25,-914.41 444.38,-922.61 450.12,-922.61"/>
</g>
<!-- flow_ok -->
<g id="node13" class="node">
<title>flow_ok</title>
<polygon fill="#fff3d9" stroke="#d39b26" stroke-width="1.2" points="447.25,-784.98 287.65,-742.08 447.25,-699.18 606.85,-742.08 447.25,-784.98"/>
<text xml:space="preserve" text-anchor="middle" x="447.25" y="-744.93" font-family="Arial" font-size="12.00" fill="#1f2a33">Trusted row direction</text>
<text xml:space="preserve" text-anchor="middle" x="447.25" y="-730.68" font-family="Arial" font-size="12.00" fill="#1f2a33">available from diagram 1?</text>
</g>
<!-- attachment_ok&#45;&gt;flow_ok -->
<g id="edge9" class="edge">
<title>attachment_ok&#45;&gt;flow_ok</title>
<path fill="none" stroke="#4e5b66" stroke-width="1.05" d="M447.25,-797.61C447.25,-797.61 447.25,-795.07 447.25,-795.07"/>
<polygon fill="#4e5b66" stroke="#4e5b66" stroke-width="1.05" points="450.12,-795.07 447.25,-786.87 444.38,-795.07 450.12,-795.07"/>
<text xml:space="preserve" text-anchor="middle" x="438.62" y="-785.89" font-family="Arial" font-size="11.00">Yes</text>
</g>
<!-- fail_lane_2 -->
<!-- attachment_ok&#45;&gt;fail_lane_2 -->
<g id="edge24" class="edge">
<title>attachment_ok&#45;&gt;fail_lane_2</title>
<path fill="none" stroke="#4e5b66" stroke-width="1.05" d="M653.59,-855C653.59,-855 662.69,-855 662.69,-855"/>
<polygon fill="#4e5b66" stroke="#4e5b66" stroke-width="1.05" points="662.69,-857.87 670.89,-855 662.69,-852.13 662.69,-857.87"/>
<text xml:space="preserve" text-anchor="middle" x="665.27" y="-858.05" font-family="Arial" font-size="11.00">No</text>
</g>
<!-- rule_attachment -->
<g id="node27" class="node">
<title>rule_attachment</title>
<path fill="#fff4e5" stroke="#d8a552" stroke-width="1.2" d="M948.95,-875.92C948.95,-875.92 805.55,-875.92 805.55,-875.92 799.55,-875.92 793.55,-869.92 793.55,-863.92 793.55,-863.92 793.55,-846.34 793.55,-846.34 793.55,-840.34 799.55,-834.34 805.55,-834.34 805.55,-834.34 948.95,-834.34 948.95,-834.34 954.95,-834.34 960.95,-840.34 960.95,-846.34 960.95,-846.34 960.95,-863.92 960.95,-863.92 960.95,-869.92 954.95,-875.92 948.95,-875.92"/>
<text xml:space="preserve" text-anchor="middle" x="877.25" y="-862.33" font-family="Arial" font-size="9.00" fill="#1f2a33">Attachment quality gate</text>
<text xml:space="preserve" text-anchor="middle" x="877.25" y="-851.83" font-family="Arial" font-size="9.00" fill="#1f2a33">crash must be credibly tied</text>
<text xml:space="preserve" text-anchor="middle" x="877.25" y="-841.33" font-family="Arial" font-size="9.00" fill="#1f2a33">to the selected row and signal context</text>
</g>
<!-- attachment_ok&#45;&gt;rule_attachment -->
<!-- phase2_hdr -->
<g id="node15" class="node">
<title>phase2_hdr</title>
<path fill="#eaf3f9" stroke="none" stroke-width="1.2" d="M525.67,-686.18C525.67,-686.18 368.82,-686.18 368.82,-686.18 362.82,-686.18 356.82,-680.18 356.82,-674.18 356.82,-674.18 356.82,-653.78 356.82,-653.78 356.82,-647.78 362.82,-641.78 368.82,-641.78 368.82,-641.78 525.67,-641.78 525.67,-641.78 531.67,-641.78 537.67,-647.78 537.67,-653.78 537.67,-653.78 537.67,-674.18 537.67,-674.18 537.67,-680.18 531.67,-686.18 525.67,-686.18"/>
<text xml:space="preserve" text-anchor="start" x="426.62" y="-667.53" font-family="Arial" font-weight="bold" font-size="11.00" fill="#1f2a33">Phase 2</text>
<text xml:space="preserve" text-anchor="start" x="369.62" y="-653.23" font-family="Arial" font-size="9.00" fill="#1f2a33">order on one directed row and classify</text>
</g>
<!-- flow_ok&#45;&gt;phase2_hdr -->
<!-- directed_line -->
<g id="node16" class="node">
<title>directed_line</title>
<path fill="#eaf3f9" stroke="#3b6f8e" stroke-width="1.2" d="M518.05,-624.19C518.05,-624.19 376.45,-624.19 376.45,-624.19 370.45,-624.19 364.45,-618.19 364.45,-612.19 364.45,-612.19 364.45,-593.29 364.45,-593.29 364.45,-587.29 370.45,-581.29 376.45,-581.29 376.45,-581.29 518.05,-581.29 518.05,-581.29 524.05,-581.29 530.05,-587.29 530.05,-593.29 530.05,-593.29 530.05,-612.19 530.05,-612.19 530.05,-618.19 524.05,-624.19 518.05,-624.19"/>
<text xml:space="preserve" text-anchor="middle" x="447.25" y="-605.59" font-family="Arial" font-size="12.00" fill="#1f2a33">Place crash and signal</text>
<text xml:space="preserve" text-anchor="middle" x="447.25" y="-591.34" font-family="Arial" font-size="12.00" fill="#1f2a33">on one directed row</text>
</g>
<!-- flow_ok&#45;&gt;directed_line -->
<g id="edge10" class="edge">
<title>flow_ok&#45;&gt;directed_line</title>
<path fill="none" stroke="#4e5b66" stroke-width="1.05" d="M572.26,-732.58C572.26,-702.3 572.26,-610 572.26,-610 572.26,-610 540.42,-610 540.42,-610"/>
<polygon fill="#4e5b66" stroke="#4e5b66" stroke-width="1.05" points="540.42,-607.13 532.22,-610 540.42,-612.87 540.42,-607.13"/>
<text xml:space="preserve" text-anchor="middle" x="563.64" y="-658.42" font-family="Arial" font-size="11.00">Yes</text>
</g>
<!-- fail_lane_3 -->
<!-- flow_ok&#45;&gt;fail_lane_3 -->
<g id="edge25" class="edge">
<title>flow_ok&#45;&gt;fail_lane_3</title>
<path fill="none" stroke="#4e5b66" stroke-width="1.05" d="M608.79,-742C608.79,-742 662.74,-742 662.74,-742"/>
<polygon fill="#4e5b66" stroke="#4e5b66" stroke-width="1.05" points="662.74,-744.87 670.94,-742 662.74,-739.13 662.74,-744.87"/>
<text xml:space="preserve" text-anchor="middle" x="628.64" y="-745.05" font-family="Arial" font-size="11.00">No</text>
</g>
<!-- fail_lane_1&#45;&gt;fail_lane_2 -->
<g id="edge27" class="edge">
<title>fail_lane_1&#45;&gt;fail_lane_2</title>
<path fill="none" stroke="#4e5b66" stroke-width="1.05" d="M673.25,-946.15C673.25,-938.83 673.25,-865.24 673.25,-856.07"/>
</g>
<!-- phase2_hdr&#45;&gt;directed_line -->
<!-- compare_ok -->
<g id="node17" class="node">
<title>compare_ok</title>
<polygon fill="#fff3d9" stroke="#d39b26" stroke-width="1.2" points="447.25,-560.7 253.9,-517.8 447.25,-474.9 640.6,-517.8 447.25,-560.7"/>
<text xml:space="preserve" text-anchor="middle" x="447.25" y="-520.65" font-family="Arial" font-size="12.00" fill="#1f2a33">Can crash and signal be reliably</text>
<text xml:space="preserve" text-anchor="middle" x="447.25" y="-506.4" font-family="Arial" font-size="12.00" fill="#1f2a33">ordered on that row?</text>
</g>
<!-- directed_line&#45;&gt;compare_ok -->
<g id="edge11" class="edge">
<title>directed_line&#45;&gt;compare_ok</title>
<path fill="none" stroke="#4e5b66" stroke-width="1.05" d="M447.25,-580.87C447.25,-580.87 447.25,-570.85 447.25,-570.85"/>
<polygon fill="#4e5b66" stroke="#4e5b66" stroke-width="1.05" points="450.12,-570.85 447.25,-562.65 444.38,-570.85 450.12,-570.85"/>
</g>
<!-- rule_line -->
<g id="node28" class="node">
<title>rule_line</title>
<path fill="#fff4e5" stroke="#d8a552" stroke-width="1.2" d="M995.58,-628.78C995.58,-628.78 804.92,-628.78 804.92,-628.78 798.92,-628.78 792.92,-622.78 792.92,-616.78 792.92,-616.78 792.92,-588.7 792.92,-588.7 792.92,-582.7 798.92,-576.7 804.92,-576.7 804.92,-576.7 995.58,-576.7 995.58,-576.7 1001.58,-576.7 1007.58,-582.7 1007.58,-588.7 1007.58,-588.7 1007.58,-616.78 1007.58,-616.78 1007.58,-622.78 1001.58,-628.78 995.58,-628.78"/>
<text xml:space="preserve" text-anchor="middle" x="900.25" y="-615.19" font-family="Arial" font-size="9.00" fill="#1f2a33">Directed row comparison</text>
<text xml:space="preserve" text-anchor="middle" x="900.25" y="-604.69" font-family="Arial" font-size="9.00" fill="#1f2a33">use the row&#45;level flow result from diagram 1</text>
<text xml:space="preserve" text-anchor="middle" x="900.25" y="-594.19" font-family="Arial" font-size="9.00" fill="#1f2a33">to order crash and signal on one row,</text>
<text xml:space="preserve" text-anchor="middle" x="900.25" y="-583.69" font-family="Arial" font-size="9.00" fill="#1f2a33">then compare which comes first in travel direction</text>
</g>
<!-- directed_line&#45;&gt;rule_line -->
<!-- fail_lane_4 -->
<!-- compare_ok&#45;&gt;fail_lane_4 -->
<g id="edge26" class="edge">
<title>compare_ok&#45;&gt;fail_lane_4</title>
<path fill="none" stroke="#4e5b66" stroke-width="1.05" d="M642.3,-518C642.3,-518 662.59,-518 662.59,-518"/>
<polygon fill="#4e5b66" stroke="#4e5b66" stroke-width="1.05" points="662.59,-520.87 670.79,-518 662.59,-515.13 662.59,-520.87"/>
<text xml:space="preserve" text-anchor="middle" x="659.57" y="-521.05" font-family="Arial" font-size="11.00">No</text>
</g>
<!-- position -->
<g id="node21" class="node">
<title>position</title>
<polygon fill="#fff3d9" stroke="#d39b26" stroke-width="1.2" points="447.25,-461.9 233.65,-419 447.25,-376.1 660.85,-419 447.25,-461.9"/>
<text xml:space="preserve" text-anchor="middle" x="447.25" y="-421.85" font-family="Arial" font-size="12.00" fill="#1f2a33">Is the crash before or after the signal</text>
<text xml:space="preserve" text-anchor="middle" x="447.25" y="-407.6" font-family="Arial" font-size="12.00" fill="#1f2a33">in travel direction?</text>
</g>
<!-- compare_ok&#45;&gt;position -->
<g id="edge12" class="edge">
<title>compare_ok&#45;&gt;position</title>
<path fill="none" stroke="#4e5b66" stroke-width="1.05" d="M447.25,-474.46C447.25,-474.46 447.25,-472.07 447.25,-472.07"/>
<polygon fill="#4e5b66" stroke="#4e5b66" stroke-width="1.05" points="450.12,-472.07 447.25,-463.87 444.38,-472.07 450.12,-472.07"/>
<text xml:space="preserve" text-anchor="middle" x="438.62" y="-462.82" font-family="Arial" font-size="11.00">Yes</text>
</g>
<!-- fail_lane_2&#45;&gt;fail_lane_3 -->
<g id="edge28" class="edge">
<title>fail_lane_2&#45;&gt;fail_lane_3</title>
<path fill="none" stroke="#4e5b66" stroke-width="1.05" d="M673.25,-854.41C673.25,-845.23 673.25,-751.5 673.25,-742.74"/>
</g>
<!-- fail_lane_3&#45;&gt;fail_lane_4 -->
<g id="edge29" class="edge">
<title>fail_lane_3&#45;&gt;fail_lane_4</title>
<path fill="none" stroke="#4e5b66" stroke-width="1.05" d="M673.25,-741.44C673.25,-728.8 673.25,-533.94 673.25,-518.74"/>
</g>
<!-- unresolved -->
<g id="node23" class="node">
<title>unresolved</title>
<path fill="#e5e7eb" stroke="#7a828a" stroke-width="1.2" d="M757.17,-363.1C757.17,-363.1 589.33,-363.1 589.33,-363.1 583.33,-363.1 577.33,-357.1 577.33,-351.1 577.33,-351.1 577.33,-289.45 577.33,-289.45 577.33,-283.45 583.33,-277.45 589.33,-277.45 589.33,-277.45 757.17,-277.45 757.17,-277.45 763.17,-277.45 769.17,-283.45 769.17,-289.45 769.17,-289.45 769.17,-351.1 769.17,-351.1 769.17,-357.1 763.17,-363.1 757.17,-363.1"/>
<text xml:space="preserve" text-anchor="middle" x="673.25" y="-344.5" font-family="Arial" font-size="12.00" fill="#1f2a33">Unresolved</text>
<text xml:space="preserve" text-anchor="middle" x="673.25" y="-330.25" font-family="Arial" font-size="12.00" fill="#1f2a33">no clear same&#45;route match,</text>
<text xml:space="preserve" text-anchor="middle" x="673.25" y="-316" font-family="Arial" font-size="12.00" fill="#1f2a33">weak attachment,</text>
<text xml:space="preserve" text-anchor="middle" x="673.25" y="-301.75" font-family="Arial" font-size="12.00" fill="#1f2a33">missing trusted row direction,</text>
<text xml:space="preserve" text-anchor="middle" x="673.25" y="-287.5" font-family="Arial" font-size="12.00" fill="#1f2a33">or unreliable along&#45;row ordering</text>
</g>
<!-- fail_lane_4&#45;&gt;unresolved -->
<g id="edge30" class="edge">
<title>fail_lane_4&#45;&gt;unresolved</title>
<path fill="none" stroke="#4e5b66" stroke-width="1.05" d="M673.25,-516.92C673.25,-516.92 673.25,-373.27 673.25,-373.27"/>
<polygon fill="#4e5b66" stroke="#4e5b66" stroke-width="1.05" points="676.12,-373.27 673.25,-365.07 670.38,-373.27 676.12,-373.27"/>
</g>
<!-- upstream -->
<g id="node22" class="node">
<title>upstream</title>
<path fill="#cfeccf" stroke="#4d8b4d" stroke-width="1.2" d="M387.05,-348.85C387.05,-348.85 245.45,-348.85 245.45,-348.85 239.45,-348.85 233.45,-342.85 233.45,-336.85 233.45,-336.85 233.45,-303.7 233.45,-303.7 233.45,-297.7 239.45,-291.7 245.45,-291.7 245.45,-291.7 387.05,-291.7 387.05,-291.7 393.05,-291.7 399.05,-297.7 399.05,-303.7 399.05,-303.7 399.05,-336.85 399.05,-336.85 399.05,-342.85 393.05,-348.85 387.05,-348.85"/>
<text xml:space="preserve" text-anchor="middle" x="316.25" y="-330.25" font-family="Arial" font-size="12.00" fill="#1f2a33">Upstream</text>
<text xml:space="preserve" text-anchor="middle" x="316.25" y="-316" font-family="Arial" font-size="12.00" fill="#1f2a33">crash before signal</text>
<text xml:space="preserve" text-anchor="middle" x="316.25" y="-301.75" font-family="Arial" font-size="12.00" fill="#1f2a33">in travel direction</text>
</g>
<!-- position&#45;&gt;upstream -->
<g id="edge13" class="edge">
<title>position:sw&#45;&gt;upstream</title>
<path fill="none" stroke="#4e5b66" stroke-width="1.05" d="M316.35,-382.83C316.35,-382.83 316.35,-359.15 316.35,-359.15"/>
<polygon fill="#4e5b66" stroke="#4e5b66" stroke-width="1.05" points="319.22,-359.15 316.35,-350.95 313.48,-359.15 319.22,-359.15"/>
<text xml:space="preserve" text-anchor="middle" x="300.23" y="-360.54" font-family="Arial" font-size="11.00">Before</text>
</g>
<!-- downstream -->
<g id="node24" class="node">
<title>downstream</title>
<path fill="#ddf2d8" stroke="#5e9b58" stroke-width="1.2" d="M559.05,-348.85C559.05,-348.85 417.45,-348.85 417.45,-348.85 411.45,-348.85 405.45,-342.85 405.45,-336.85 405.45,-336.85 405.45,-303.7 405.45,-303.7 405.45,-297.7 411.45,-291.7 417.45,-291.7 417.45,-291.7 559.05,-291.7 559.05,-291.7 565.05,-291.7 571.05,-297.7 571.05,-303.7 571.05,-303.7 571.05,-336.85 571.05,-336.85 571.05,-342.85 565.05,-348.85 559.05,-348.85"/>
<text xml:space="preserve" text-anchor="middle" x="488.25" y="-330.25" font-family="Arial" font-size="12.00" fill="#1f2a33">Downstream</text>
<text xml:space="preserve" text-anchor="middle" x="488.25" y="-316" font-family="Arial" font-size="12.00" fill="#1f2a33">crash after signal</text>
<text xml:space="preserve" text-anchor="middle" x="488.25" y="-301.75" font-family="Arial" font-size="12.00" fill="#1f2a33">in travel direction</text>
</g>
<!-- position&#45;&gt;downstream -->
<g id="edge14" class="edge">
<title>position:se&#45;&gt;downstream</title>
<path fill="none" stroke="#4e5b66" stroke-width="1.05" d="M488.25,-382.83C488.25,-382.83 488.25,-359.15 488.25,-359.15"/>
<polygon fill="#4e5b66" stroke="#4e5b66" stroke-width="1.05" points="491.12,-359.15 488.25,-350.95 485.38,-359.15 491.12,-359.15"/>
<text xml:space="preserve" text-anchor="middle" x="476.62" y="-360.54" font-family="Arial" font-size="11.00">After</text>
</g>
<!-- upstream&#45;&gt;unresolved -->
<!-- out_classification -->
<g id="node29" class="node">
<title>out_classification</title>
<path fill="#eaf3f9" stroke="#3b6f8e" stroke-width="1.2" d="M593.24,-220.7C593.24,-220.7 393.26,-220.7 393.26,-220.7 387.26,-220.7 381.26,-214.7 381.26,-208.7 381.26,-208.7 381.26,-188.36 381.26,-188.36 381.26,-182.36 387.26,-176.36 393.26,-176.36 393.26,-176.36 593.24,-176.36 593.24,-176.36 599.24,-176.36 605.24,-182.36 605.24,-188.36 605.24,-188.36 605.24,-208.7 605.24,-208.7 605.24,-214.7 599.24,-220.7 593.24,-220.7"/>
<text xml:space="preserve" text-anchor="middle" x="493.25" y="-201.38" font-family="Arial" font-size="12.00" fill="#1f2a33">Primary classification result</text>
<text xml:space="preserve" text-anchor="middle" x="493.25" y="-187.13" font-family="Arial" font-size="12.00" fill="#1f2a33">upstream, downstream, or unresolved</text>
</g>
<!-- upstream&#45;&gt;out_classification -->
<g id="edge37" class="edge">
<title>upstream&#45;&gt;out_classification</title>
<path fill="none" stroke="#4e5b66" stroke-width="1.05" d="M390.15,-291.11C390.15,-291.11 390.15,-230.77 390.15,-230.77"/>
<polygon fill="#4e5b66" stroke="#4e5b66" stroke-width="1.05" points="393.03,-230.77 390.16,-222.57 387.29,-230.77 393.03,-230.77"/>
</g>
<!-- output_anchor -->
<!-- upstream&#45;&gt;output_anchor -->
<!-- unresolved&#45;&gt;downstream -->
<!-- unresolved&#45;&gt;out_classification -->
<g id="edge38" class="edge">
<title>unresolved&#45;&gt;out_classification</title>
<path fill="none" stroke="#4e5b66" stroke-width="1.05" d="M595.94,-277.01C595.94,-277.01 595.94,-230.95 595.94,-230.95"/>
<polygon fill="#4e5b66" stroke="#4e5b66" stroke-width="1.05" points="598.81,-230.95 595.94,-222.75 593.07,-230.95 598.81,-230.95"/>
</g>
<!-- unresolved&#45;&gt;output_anchor -->
<!-- downstream&#45;&gt;out_classification -->
<g id="edge39" class="edge">
<title>downstream&#45;&gt;out_classification</title>
<path fill="none" stroke="#4e5b66" stroke-width="1.05" d="M448.85,-291.11C448.85,-291.11 448.85,-230.77 448.85,-230.77"/>
<polygon fill="#4e5b66" stroke="#4e5b66" stroke-width="1.05" points="451.72,-230.77 448.85,-222.57 445.98,-230.77 451.72,-230.77"/>
</g>
<!-- downstream&#45;&gt;output_anchor -->
<!-- out_meaning -->
<g id="node30" class="node">
<title>out_meaning</title>
<path fill="#eaf3f9" stroke="#3b6f8e" stroke-width="1.2" d="M489.37,-156.24C489.37,-156.24 239.13,-156.24 239.13,-156.24 233.13,-156.24 227.13,-150.24 227.13,-144.24 227.13,-144.24 227.13,-109.64 227.13,-109.64 227.13,-103.64 233.13,-97.64 239.13,-97.64 239.13,-97.64 489.37,-97.64 489.37,-97.64 495.37,-97.64 501.37,-103.64 501.37,-109.64 501.37,-109.64 501.37,-144.24 501.37,-144.24 501.37,-150.24 495.37,-156.24 489.37,-156.24"/>
<text xml:space="preserve" text-anchor="middle" x="364.25" y="-136.91" font-family="Arial" font-size="12.00" fill="#1f2a33">Meaning</text>
<text xml:space="preserve" text-anchor="middle" x="364.25" y="-122.66" font-family="Arial" font-size="12.00" fill="#1f2a33">upstream = before the signal in travel direction</text>
<text xml:space="preserve" text-anchor="middle" x="364.25" y="-108.41" font-family="Arial" font-size="12.00" fill="#1f2a33">downstream = after the signal in travel direction</text>
</g>
<!-- out_classification&#45;&gt;out_meaning -->
<g id="edge15" class="edge">
<title>out_classification&#45;&gt;out_meaning</title>
<path fill="none" stroke="#4e5b66" stroke-width="1.05" d="M441.31,-175.88C441.31,-175.88 441.31,-166.57 441.31,-166.57"/>
<polygon fill="#4e5b66" stroke="#4e5b66" stroke-width="1.05" points="444.18,-166.57 441.31,-158.37 438.44,-166.57 444.18,-166.57"/>
</g>
<!-- out_slice -->
<g id="node31" class="node">
<title>out_slice</title>
<path fill="#ddf3f5" stroke="#4c94a0" stroke-width="1.2" d="M727.37,-163.36C727.37,-163.36 519.13,-163.36 519.13,-163.36 513.13,-163.36 507.13,-157.36 507.13,-151.36 507.13,-151.36 507.13,-102.52 507.13,-102.52 507.13,-96.52 513.13,-90.52 519.13,-90.52 519.13,-90.52 727.37,-90.52 727.37,-90.52 733.37,-90.52 739.37,-96.52 739.37,-102.52 739.37,-102.52 739.37,-151.36 739.37,-151.36 739.37,-157.36 733.37,-163.36 727.37,-163.36"/>
<text xml:space="preserve" text-anchor="middle" x="623.25" y="-144.04" font-family="Arial" font-size="12.00" fill="#1f2a33">Optional later reporting filter</text>
<text xml:space="preserve" text-anchor="middle" x="623.25" y="-129.79" font-family="Arial" font-size="12.00" fill="#1f2a33">strongest&#45;confidence subset only:</text>
<text xml:space="preserve" text-anchor="middle" x="623.25" y="-115.54" font-family="Arial" font-size="12.00" fill="#1f2a33">classified crashes with high attachment</text>
<text xml:space="preserve" text-anchor="middle" x="623.25" y="-101.29" font-family="Arial" font-size="12.00" fill="#1f2a33">and strict empirical flow</text>
</g>
<!-- out_classification&#45;&gt;out_slice -->
<g id="edge16" class="edge">
<title>out_classification&#45;&gt;out_slice</title>
<path fill="none" stroke="#4c94a0" stroke-width="1.05" stroke-dasharray="5,2" d="M556.19,-175.88C556.19,-175.88 556.19,-173.63 556.19,-173.63"/>
<polygon fill="#4c94a0" stroke="#4c94a0" stroke-width="1.05" points="559.06,-173.63 556.19,-165.43 553.32,-173.63 559.06,-173.63"/>
<text xml:space="preserve" text-anchor="middle" x="513.81" y="-164.3" font-family="Arial" font-size="11.00" fill="#4c94a0">optional later filter</text>
</g>
<!-- out_review -->
<g id="node32" class="node">
<title>out_review</title>
<path fill="#fff4e5" stroke="#d8a552" stroke-width="1.2" d="M454.67,-63.52C454.67,-63.52 273.83,-63.52 273.83,-63.52 267.83,-63.52 261.83,-57.52 261.83,-51.52 261.83,-51.52 261.83,-28 261.83,-28 261.83,-22 267.83,-16 273.83,-16 273.83,-16 454.67,-16 454.67,-16 460.67,-16 466.67,-22 466.67,-28 466.67,-28 466.67,-51.52 466.67,-51.52 466.67,-57.52 460.67,-63.52 454.67,-63.52"/>
<text xml:space="preserve" text-anchor="middle" x="364.25" y="-48.26" font-family="Arial" font-size="10.00" fill="#1f2a33">Review posture</text>
<text xml:space="preserve" text-anchor="middle" x="364.25" y="-36.26" font-family="Arial" font-size="10.00" fill="#1f2a33">unresolved stays unresolved;</text>
<text xml:space="preserve" text-anchor="middle" x="364.25" y="-24.26" font-family="Arial" font-size="10.00" fill="#1f2a33">the optional later filter is not the core output</text>
</g>
<!-- out_meaning&#45;&gt;out_review -->
<!-- out_slice&#45;&gt;out_review -->
<!-- output_anchor&#45;&gt;out_classification -->
</g>
</svg>
