<?xml version="1.0" encoding="UTF-8" standalone="no"?>
<!DOCTYPE svg PUBLIC "-//W3C//DTD SVG 1.1//EN"
 "http://www.w3.org/Graphics/SVG/1.1/DTD/svg11.dtd">
<!-- Generated by graphviz version 14.1.5 (20260411.2331)
 -->
<!-- Title: early_data_processing_decision_diagram Pages: 1 -->
<svg width="1243pt" height="1671pt"
 viewBox="0.00 0.00 1243.00 1671.00" xmlns="http://www.w3.org/2000/svg" xmlns:xlink="http://www.w3.org/1999/xlink">
<g id="graph0" class="graph" transform="scale(1 1) rotate(0) translate(7.2 1663.47)">
<title>early_data_processing_decision_diagram</title>
<polygon fill="white" stroke="none" points="-7.2,7.2 -7.2,-1663.47 1235.45,-1663.47 1235.45,7.2 -7.2,7.2"/>
<text xml:space="preserve" text-anchor="start" x="242.12" y="-1632.27" font-family="Arial" font-weight="bold" font-size="20.00">Early Data Processing for Later Directionality and Upstream/Downstream Work</text>
<text xml:space="preserve" text-anchor="start" x="10" y="-1613.02" font-family="Arial" font-size="13.00">How do the earliest roadway, signal, crash, and support layers become the bounded study inputs later consumed by the directionality experiment and the signal&#45;centered upstream/downstream prototype?</text>
<g id="clust1" class="cluster">
<title>cluster_starts</title>
<path fill="#fff9f0" stroke="#e9d3af" d="M155.12,-345.14C155.12,-345.14 381.12,-345.14 381.12,-345.14 387.12,-345.14 393.12,-351.14 393.12,-357.14 393.12,-357.14 393.12,-1584.02 393.12,-1584.02 393.12,-1590.02 387.12,-1596.02 381.12,-1596.02 381.12,-1596.02 155.12,-1596.02 155.12,-1596.02 149.12,-1596.02 143.12,-1590.02 143.12,-1584.02 143.12,-1584.02 143.12,-357.14 143.12,-357.14 143.12,-351.14 149.12,-345.14 155.12,-345.14"/>
<text xml:space="preserve" text-anchor="middle" x="268.12" y="-1578.72" font-family="Arial" font-size="14.00">Inputs / Starts Here</text>
</g>
<g id="clust2" class="cluster">
<title>cluster_spine</title>
<path fill="#ffffff" stroke="#d7e2ea" stroke-width="1.1" d="M413.12,-339.2C413.12,-339.2 751.12,-339.2 751.12,-339.2 757.12,-339.2 763.12,-345.2 763.12,-351.2 763.12,-351.2 763.12,-1575.71 763.12,-1575.71 763.12,-1581.71 757.12,-1587.71 751.12,-1587.71 751.12,-1587.71 413.12,-1587.71 413.12,-1587.71 407.12,-1587.71 401.12,-1581.71 401.12,-1575.71 401.12,-1575.71 401.12,-351.2 401.12,-351.2 401.12,-345.2 407.12,-339.2 413.12,-339.2"/>
<text xml:space="preserve" text-anchor="middle" x="582.12" y="-1570.41" font-family="Arial" font-size="14.00">Main Processing Spine</text>
</g>
<g id="clust3" class="cluster">
<title>cluster_rules</title>
<path fill="#fff9f0" stroke="#e9d3af" stroke-width="0.95" d="M783.12,-348.86C783.12,-348.86 1051.12,-348.86 1051.12,-348.86 1057.12,-348.86 1063.12,-354.86 1063.12,-360.86 1063.12,-360.86 1063.12,-1580.3 1063.12,-1580.3 1063.12,-1586.3 1057.12,-1592.3 1051.12,-1592.3 1051.12,-1592.3 783.12,-1592.3 783.12,-1592.3 777.12,-1592.3 771.12,-1586.3 771.12,-1580.3 771.12,-1580.3 771.12,-360.86 771.12,-360.86 771.12,-354.86 777.12,-348.86 783.12,-348.86"/>
<text xml:space="preserve" text-anchor="middle" x="917.12" y="-1575" font-family="Arial" font-size="14.00">Definitions / Processing Rules</text>
</g>
<g id="clust4" class="cluster">
<title>cluster_outputs</title>
<path fill="#fff9f0" stroke="#e9d3af" stroke-width="1.1" d="M567.12,-8C567.12,-8 1073.12,-8 1073.12,-8 1079.12,-8 1085.12,-14 1085.12,-20 1085.12,-20 1085.12,-310.2 1085.12,-310.2 1085.12,-316.2 1079.12,-322.2 1073.12,-322.2 1073.12,-322.2 567.12,-322.2 567.12,-322.2 561.12,-322.2 555.12,-316.2 555.12,-310.2 555.12,-310.2 555.12,-20 555.12,-20 555.12,-14 561.12,-8 567.12,-8"/>
<text xml:space="preserve" text-anchor="middle" x="820.12" y="-304.9" font-family="Arial" font-size="14.00">Outputs / Handoff</text>
</g>
<!-- input_roads -->
<g id="node1" class="node">
<title>input_roads</title>
<path fill="#fff4e5" stroke="#d8a552" stroke-width="1.2" d="M373.39,-1564.27C373.39,-1564.27 254.86,-1564.27 254.86,-1564.27 248.86,-1564.27 242.86,-1558.27 242.86,-1552.27 242.86,-1552.27 242.86,-1516.75 242.86,-1516.75 242.86,-1510.75 248.86,-1504.75 254.86,-1504.75 254.86,-1504.75 373.39,-1504.75 373.39,-1504.75 379.39,-1504.75 385.39,-1510.75 385.39,-1516.75 385.39,-1516.75 385.39,-1552.27 385.39,-1552.27 385.39,-1558.27 379.39,-1564.27 373.39,-1564.27"/>
<text xml:space="preserve" text-anchor="middle" x="314.12" y="-1549.01" font-family="Arial" font-size="10.00" fill="#1f2a33">Raw roadway layer</text>
<text xml:space="preserve" text-anchor="middle" x="314.12" y="-1537.01" font-family="Arial" font-size="10.00" fill="#1f2a33">Travelway.gdb / Travelway</text>
<text xml:space="preserve" text-anchor="middle" x="314.12" y="-1525.01" font-family="Arial" font-size="10.00" fill="#1f2a33">full roadway inventory before</text>
<text xml:space="preserve" text-anchor="middle" x="314.12" y="-1513.01" font-family="Arial" font-size="10.00" fill="#1f2a33">study&#45;road filtering</text>
</g>
<!-- start -->
<g id="node5" class="node">
<title>start</title>
<path fill="#eaf3f9" stroke="#3b6f8e" stroke-width="1.2" d="M664.92,-1555.96C664.92,-1555.96 499.32,-1555.96 499.32,-1555.96 493.32,-1555.96 487.32,-1549.96 487.32,-1543.96 487.32,-1543.96 487.32,-1525.06 487.32,-1525.06 487.32,-1519.06 493.32,-1513.06 499.32,-1513.06 499.32,-1513.06 664.92,-1513.06 664.92,-1513.06 670.92,-1513.06 676.92,-1519.06 676.92,-1525.06 676.92,-1525.06 676.92,-1543.96 676.92,-1543.96 676.92,-1549.96 670.92,-1555.96 664.92,-1555.96"/>
<text xml:space="preserve" text-anchor="middle" x="582.12" y="-1537.36" font-family="Arial" font-size="12.00" fill="#1f2a33">Start from configured raw layers</text>
<text xml:space="preserve" text-anchor="middle" x="582.12" y="-1523.11" font-family="Arial" font-size="12.00" fill="#1f2a33">under the bounded active slice</text>
</g>
<!-- input_roads&#45;&gt;start -->
<!-- input_signals -->
<g id="node2" class="node">
<title>input_signals</title>
<path fill="#fff4e5" stroke="#d8a552" stroke-width="1.2" d="M372.76,-1426.41C372.76,-1426.41 253.49,-1426.41 253.49,-1426.41 247.49,-1426.41 241.49,-1420.41 241.49,-1414.41 241.49,-1414.41 241.49,-1378.89 241.49,-1378.89 241.49,-1372.89 247.49,-1366.89 253.49,-1366.89 253.49,-1366.89 372.76,-1366.89 372.76,-1366.89 378.76,-1366.89 384.76,-1372.89 384.76,-1378.89 384.76,-1378.89 384.76,-1414.41 384.76,-1414.41 384.76,-1420.41 378.76,-1426.41 372.76,-1426.41"/>
<text xml:space="preserve" text-anchor="middle" x="313.12" y="-1411.15" font-family="Arial" font-size="10.00" fill="#1f2a33">Raw signal sources</text>
<text xml:space="preserve" text-anchor="middle" x="313.12" y="-1399.15" font-family="Arial" font-size="10.00" fill="#1f2a33">HMMS + Norfolk + Hampton</text>
<text xml:space="preserve" text-anchor="middle" x="313.12" y="-1387.15" font-family="Arial" font-size="10.00" fill="#1f2a33">later merged into one active</text>
<text xml:space="preserve" text-anchor="middle" x="313.12" y="-1375.15" font-family="Arial" font-size="10.00" fill="#1f2a33">signal surface</text>
</g>
<!-- stage_inputs -->
<g id="node7" class="node">
<title>stage_inputs</title>
<path fill="#eaf3f9" stroke="#3b6f8e" stroke-width="1.2" d="M667.17,-1432.35C667.17,-1432.35 497.07,-1432.35 497.07,-1432.35 491.07,-1432.35 485.07,-1426.35 485.07,-1420.35 485.07,-1420.35 485.07,-1372.95 485.07,-1372.95 485.07,-1366.95 491.07,-1360.95 497.07,-1360.95 497.07,-1360.95 667.17,-1360.95 667.17,-1360.95 673.17,-1360.95 679.17,-1366.95 679.17,-1372.95 679.17,-1372.95 679.17,-1420.35 679.17,-1420.35 679.17,-1426.35 673.17,-1432.35 667.17,-1432.35"/>
<text xml:space="preserve" text-anchor="middle" x="582.12" y="-1413.75" font-family="Arial" font-size="12.00" fill="#1f2a33">Stage raw inputs as GeoParquet</text>
<text xml:space="preserve" text-anchor="middle" x="582.12" y="-1399.5" font-family="Arial" font-size="12.00" fill="#1f2a33">one file per active layer;</text>
<text xml:space="preserve" text-anchor="middle" x="582.12" y="-1385.25" font-family="Arial" font-size="12.00" fill="#1f2a33">merge the three signal sources</text>
<text xml:space="preserve" text-anchor="middle" x="582.12" y="-1371" font-family="Arial" font-size="12.00" fill="#1f2a33">and keep source provenance</text>
</g>
<!-- input_signals&#45;&gt;stage_inputs -->
<!-- input_crashes -->
<g id="node3" class="node">
<title>input_crashes</title>
<path fill="#fff4e5" stroke="#d8a552" stroke-width="1.2" d="M338.64,-1341.01C338.64,-1341.01 197.61,-1341.01 197.61,-1341.01 191.61,-1341.01 185.61,-1335.01 185.61,-1329.01 185.61,-1329.01 185.61,-1293.49 185.61,-1293.49 185.61,-1287.49 191.61,-1281.49 197.61,-1281.49 197.61,-1281.49 338.64,-1281.49 338.64,-1281.49 344.64,-1281.49 350.64,-1287.49 350.64,-1293.49 350.64,-1293.49 350.64,-1329.01 350.64,-1329.01 350.64,-1335.01 344.64,-1341.01 338.64,-1341.01"/>
<text xml:space="preserve" text-anchor="middle" x="268.12" y="-1325.75" font-family="Arial" font-size="10.00" fill="#1f2a33">Raw crash geometry layer</text>
<text xml:space="preserve" text-anchor="middle" x="268.12" y="-1313.75" font-family="Arial" font-size="10.00" fill="#1f2a33">crashdata.gdb / CrashData_Basic</text>
<text xml:space="preserve" text-anchor="middle" x="268.12" y="-1301.75" font-family="Arial" font-size="10.00" fill="#1f2a33">point location, route name,</text>
<text xml:space="preserve" text-anchor="middle" x="268.12" y="-1289.75" font-family="Arial" font-size="10.00" fill="#1f2a33">measure, year, vehicle count</text>
</g>
<!-- crash_prep -->
<g id="node19" class="node">
<title>crash_prep</title>
<path fill="#eaf3f9" stroke="#3b6f8e" stroke-width="1.2" d="M712.55,-518.25C712.55,-518.25 451.7,-518.25 451.7,-518.25 445.7,-518.25 439.7,-512.25 439.7,-506.25 439.7,-506.25 439.7,-444.6 439.7,-444.6 439.7,-438.6 445.7,-432.6 451.7,-432.6 451.7,-432.6 712.55,-432.6 712.55,-432.6 718.55,-432.6 724.55,-438.6 724.55,-444.6 724.55,-444.6 724.55,-506.25 724.55,-506.25 724.55,-512.25 718.55,-518.25 712.55,-518.25"/>
<text xml:space="preserve" text-anchor="middle" x="582.12" y="-499.65" font-family="Arial" font-size="12.00" fill="#1f2a33">Prepare experiment&#45;ready crashes</text>
<text xml:space="preserve" text-anchor="middle" x="582.12" y="-485.4" font-family="Arial" font-size="12.00" fill="#1f2a33">join normalized CrashData_Basic</text>
<text xml:space="preserve" text-anchor="middle" x="582.12" y="-471.15" font-family="Arial" font-size="12.00" fill="#1f2a33">to raw CrashData_Details on DOCUMENT_NBR,</text>
<text xml:space="preserve" text-anchor="middle" x="582.12" y="-456.9" font-family="Arial" font-size="12.00" fill="#1f2a33">then derive parsed travel direction</text>
<text xml:space="preserve" text-anchor="middle" x="582.12" y="-442.65" font-family="Arial" font-size="12.00" fill="#1f2a33">and qualifying crash flags</text>
</g>
<!-- input_crashes&#45;&gt;crash_prep -->
<g id="edge33" class="edge">
<title>input_crashes&#45;&gt;crash_prep</title>
<path fill="none" stroke="#4c94a0" stroke-width="1.05" stroke-dasharray="5,2" d="M268.12,-1281.05C268.12,-1132.88 268.12,-490 268.12,-490 268.12,-490 429.58,-490 429.58,-490"/>
<polygon fill="#4c94a0" stroke="#4c94a0" stroke-width="1.05" points="429.58,-492.87 437.78,-490 429.58,-487.13 429.58,-492.87"/>
<text xml:space="preserve" text-anchor="middle" x="217.88" y="-807.85" font-family="Arial" font-size="11.00" fill="#4c94a0">normalized geometry</text>
</g>
<!-- input_support -->
<g id="node4" class="node">
<title>input_support</title>
<path fill="#fff4e5" stroke="#d8a552" stroke-width="1.2" d="M372.76,-412.66C372.76,-412.66 163.49,-412.66 163.49,-412.66 157.49,-412.66 151.49,-406.66 151.49,-400.66 151.49,-400.66 151.49,-365.14 151.49,-365.14 151.49,-359.14 157.49,-353.14 163.49,-353.14 163.49,-353.14 372.76,-353.14 372.76,-353.14 378.76,-353.14 384.76,-359.14 384.76,-365.14 384.76,-365.14 384.76,-400.66 384.76,-400.66 384.76,-406.66 378.76,-412.66 372.76,-412.66"/>
<text xml:space="preserve" text-anchor="middle" x="268.12" y="-397.4" font-family="Arial" font-size="10.00" fill="#1f2a33">Later support layers still kept available</text>
<text xml:space="preserve" text-anchor="middle" x="268.12" y="-385.4" font-family="Arial" font-size="10.00" fill="#1f2a33">CrashData_Details for direction&#45;of&#45;travel</text>
<text xml:space="preserve" text-anchor="middle" x="268.12" y="-373.4" font-family="Arial" font-size="10.00" fill="#1f2a33">and maneuver fields;</text>
<text xml:space="preserve" text-anchor="middle" x="268.12" y="-361.4" font-family="Arial" font-size="10.00" fill="#1f2a33">posted&#45;speed segments for prototype study areas</text>
</g>
<!-- input_support&#45;&gt;crash_prep -->
<g id="edge34" class="edge">
<title>input_support&#45;&gt;crash_prep</title>
<path fill="none" stroke="#4c94a0" stroke-width="1.05" stroke-dasharray="5,2" d="M367.7,-412.87C367.7,-434.9 367.7,-461 367.7,-461 367.7,-461 429.31,-461 429.31,-461"/>
<polygon fill="#4c94a0" stroke="#4c94a0" stroke-width="1.05" points="429.31,-463.87 437.51,-461 429.31,-458.13 429.31,-463.87"/>
<text xml:space="preserve" text-anchor="middle" x="338.82" y="-464.05" font-family="Arial" font-size="11.00" fill="#4c94a0">raw details join</text>
</g>
<!-- speed_prep -->
<g id="node20" class="node">
<title>speed_prep</title>
<path fill="#eaf3f9" stroke="#3b6f8e" stroke-width="1.2" d="M684.3,-418.6C684.3,-418.6 445.95,-418.6 445.95,-418.6 439.95,-418.6 433.95,-412.6 433.95,-406.6 433.95,-406.6 433.95,-359.2 433.95,-359.2 433.95,-353.2 439.95,-347.2 445.95,-347.2 445.95,-347.2 684.3,-347.2 684.3,-347.2 690.3,-347.2 696.3,-353.2 696.3,-359.2 696.3,-359.2 696.3,-406.6 696.3,-406.6 696.3,-412.6 690.3,-418.6 684.3,-418.6"/>
<text xml:space="preserve" text-anchor="middle" x="565.12" y="-400" font-family="Arial" font-size="12.00" fill="#1f2a33">Prepare speed&#45;informed signal context</text>
<text xml:space="preserve" text-anchor="middle" x="565.12" y="-385.75" font-family="Arial" font-size="12.00" fill="#1f2a33">prototype later joins posted&#45;speed segments</text>
<text xml:space="preserve" text-anchor="middle" x="565.12" y="-371.5" font-family="Arial" font-size="12.00" fill="#1f2a33">to eligible signals and converts speed</text>
<text xml:space="preserve" text-anchor="middle" x="565.12" y="-357.25" font-family="Arial" font-size="12.00" fill="#1f2a33">to approach&#45;length / functional&#45;distance fields</text>
</g>
<!-- input_support&#45;&gt;speed_prep -->
<g id="edge35" class="edge">
<title>input_support&#45;&gt;speed_prep</title>
<path fill="none" stroke="#4c94a0" stroke-width="1.05" stroke-dasharray="5,2" d="M385.08,-383C385.08,-383 423.76,-383 423.76,-383"/>
<polygon fill="#4c94a0" stroke="#4c94a0" stroke-width="1.05" points="423.76,-385.87 431.96,-383 423.76,-380.13 423.76,-385.87"/>
<text xml:space="preserve" text-anchor="middle" x="404.42" y="-372.55" font-family="Arial" font-size="11.00" fill="#4c94a0">posted speed join</text>
</g>
<!-- phase1_hdr -->
<g id="node6" class="node">
<title>phase1_hdr</title>
<path fill="#eaf3f9" stroke="none" stroke-width="1.2" d="M658.33,-1490.75C658.33,-1490.75 505.93,-1490.75 505.93,-1490.75 499.93,-1490.75 493.93,-1484.75 493.93,-1478.75 493.93,-1478.75 493.93,-1458.35 493.93,-1458.35 493.93,-1452.35 499.93,-1446.35 505.93,-1446.35 505.93,-1446.35 658.33,-1446.35 658.33,-1446.35 664.33,-1446.35 670.33,-1452.35 670.33,-1458.35 670.33,-1458.35 670.33,-1478.75 670.33,-1478.75 670.33,-1484.75 664.33,-1490.75 658.33,-1490.75"/>
<text xml:space="preserve" text-anchor="start" x="561.5" y="-1472.1" font-family="Arial" font-weight="bold" font-size="11.00" fill="#1f2a33">Phase 1</text>
<text xml:space="preserve" text-anchor="start" x="513.88" y="-1457.8" font-family="Arial" font-size="9.00" fill="#1f2a33">stage and normalize active inputs</text>
</g>
<!-- start&#45;&gt;phase1_hdr -->
<!-- rule_stage -->
<g id="node21" class="node">
<title>rule_stage</title>
<path fill="#fff4e5" stroke="#d8a552" stroke-width="1.2" d="M1015.33,-1560.55C1015.33,-1560.55 790.92,-1560.55 790.92,-1560.55 784.92,-1560.55 778.92,-1554.55 778.92,-1548.55 778.92,-1548.55 778.92,-1520.47 778.92,-1520.47 778.92,-1514.47 784.92,-1508.47 790.92,-1508.47 790.92,-1508.47 1015.33,-1508.47 1015.33,-1508.47 1021.33,-1508.47 1027.33,-1514.47 1027.33,-1520.47 1027.33,-1520.47 1027.33,-1548.55 1027.33,-1548.55 1027.33,-1554.55 1021.33,-1560.55 1015.33,-1560.55"/>
<text xml:space="preserve" text-anchor="middle" x="903.12" y="-1546.96" font-family="Arial" font-size="9.00" fill="#1f2a33">Stage&#45;inputs contract</text>
<text xml:space="preserve" text-anchor="middle" x="903.12" y="-1536.46" font-family="Arial" font-size="9.00" fill="#1f2a33">copy active raw layers into one&#45;file&#45;per&#45;layer GeoParquet;</text>
<text xml:space="preserve" text-anchor="middle" x="903.12" y="-1525.96" font-family="Arial" font-size="9.00" fill="#1f2a33">signals are merged from HMMS, Norfolk, and Hampton</text>
<text xml:space="preserve" text-anchor="middle" x="903.12" y="-1515.46" font-family="Arial" font-size="9.00" fill="#1f2a33">with Stage1 source provenance retained</text>
</g>
<!-- start&#45;&gt;rule_stage -->
<!-- phase1_hdr&#45;&gt;stage_inputs -->
<!-- normalize -->
<g id="node8" class="node">
<title>normalize</title>
<path fill="#eaf3f9" stroke="#3b6f8e" stroke-width="1.2" d="M679.55,-1346.95C679.55,-1346.95 484.7,-1346.95 484.7,-1346.95 478.7,-1346.95 472.7,-1340.95 472.7,-1334.95 472.7,-1334.95 472.7,-1287.55 472.7,-1287.55 472.7,-1281.55 478.7,-1275.55 484.7,-1275.55 484.7,-1275.55 679.55,-1275.55 679.55,-1275.55 685.55,-1275.55 691.55,-1281.55 691.55,-1287.55 691.55,-1287.55 691.55,-1334.95 691.55,-1334.95 691.55,-1340.95 685.55,-1346.95 679.55,-1346.95"/>
<text xml:space="preserve" text-anchor="middle" x="582.12" y="-1328.35" font-family="Arial" font-size="12.00" fill="#1f2a33">Normalize staged layers</text>
<text xml:space="preserve" text-anchor="middle" x="582.12" y="-1314.1" font-family="Arial" font-size="12.00" fill="#1f2a33">reproject to working CRS,</text>
<text xml:space="preserve" text-anchor="middle" x="582.12" y="-1299.85" font-family="Arial" font-size="12.00" fill="#1f2a33">drop null geometry,</text>
<text xml:space="preserve" text-anchor="middle" x="582.12" y="-1285.6" font-family="Arial" font-size="12.00" fill="#1f2a33">and keep crashes only for 2022&#45;2024</text>
</g>
<!-- stage_inputs&#45;&gt;normalize -->
<g id="edge3" class="edge">
<title>stage_inputs&#45;&gt;normalize</title>
<path fill="none" stroke="#4e5b66" stroke-width="1.05" d="M582.12,-1360.43C582.12,-1360.43 582.12,-1357.31 582.12,-1357.31"/>
<polygon fill="#4e5b66" stroke="#4e5b66" stroke-width="1.05" points="585,-1357.31 582.13,-1349.11 579.26,-1357.31 585,-1357.31"/>
</g>
<!-- phase2_hdr -->
<g id="node9" class="node">
<title>phase2_hdr</title>
<path fill="#eaf3f9" stroke="none" stroke-width="1.2" d="M669.55,-1261.55C669.55,-1261.55 494.7,-1261.55 494.7,-1261.55 488.7,-1261.55 482.7,-1255.55 482.7,-1249.55 482.7,-1249.55 482.7,-1229.15 482.7,-1229.15 482.7,-1223.15 488.7,-1217.15 494.7,-1217.15 494.7,-1217.15 669.55,-1217.15 669.55,-1217.15 675.55,-1217.15 681.55,-1223.15 681.55,-1229.15 681.55,-1229.15 681.55,-1249.55 681.55,-1249.55 681.55,-1255.55 675.55,-1261.55 669.55,-1261.55"/>
<text xml:space="preserve" text-anchor="start" x="561.5" y="-1242.9" font-family="Arial" font-weight="bold" font-size="11.00" fill="#1f2a33">Phase 2</text>
<text xml:space="preserve" text-anchor="start" x="495.5" y="-1228.6" font-family="Arial" font-size="9.00" fill="#1f2a33">build the bounded divided&#45;road study slice</text>
</g>
<!-- normalize&#45;&gt;phase2_hdr -->
<!-- rule_normalize -->
<g id="node22" class="node">
<title>rule_normalize</title>
<path fill="#fff4e5" stroke="#d8a552" stroke-width="1.2" d="M998.7,-1422.69C998.7,-1422.69 791.55,-1422.69 791.55,-1422.69 785.55,-1422.69 779.55,-1416.69 779.55,-1410.69 779.55,-1410.69 779.55,-1382.61 779.55,-1382.61 779.55,-1376.61 785.55,-1370.61 791.55,-1370.61 791.55,-1370.61 998.7,-1370.61 998.7,-1370.61 1004.7,-1370.61 1010.7,-1376.61 1010.7,-1382.61 1010.7,-1382.61 1010.7,-1410.69 1010.7,-1410.69 1010.7,-1416.69 1004.7,-1422.69 998.7,-1422.69"/>
<text xml:space="preserve" text-anchor="middle" x="895.12" y="-1409.1" font-family="Arial" font-size="9.00" fill="#1f2a33">Normalize&#45;stage contract</text>
<text xml:space="preserve" text-anchor="middle" x="895.12" y="-1398.6" font-family="Arial" font-size="9.00" fill="#1f2a33">working CRS = EPSG:3968;</text>
<text xml:space="preserve" text-anchor="middle" x="895.12" y="-1388.1" font-family="Arial" font-size="9.00" fill="#1f2a33">drop null geometry;</text>
<text xml:space="preserve" text-anchor="middle" x="895.12" y="-1377.6" font-family="Arial" font-size="9.00" fill="#1f2a33">crash rows are trimmed to CRASH_YEAR 2022&#45;2024</text>
</g>
<!-- normalize&#45;&gt;rule_normalize -->
<!-- roads_filter -->
<g id="node10" class="node">
<title>roads_filter</title>
<path fill="#eaf3f9" stroke="#3b6f8e" stroke-width="1.2" d="M660.05,-1203.15C660.05,-1203.15 504.2,-1203.15 504.2,-1203.15 498.2,-1203.15 492.2,-1197.15 492.2,-1191.15 492.2,-1191.15 492.2,-1172.25 492.2,-1172.25 492.2,-1166.25 498.2,-1160.25 504.2,-1160.25 504.2,-1160.25 660.05,-1160.25 660.05,-1160.25 666.05,-1160.25 672.05,-1166.25 672.05,-1172.25 672.05,-1172.25 672.05,-1191.15 672.05,-1191.15 672.05,-1197.15 666.05,-1203.15 660.05,-1203.15"/>
<text xml:space="preserve" text-anchor="middle" x="582.12" y="-1184.55" font-family="Arial" font-size="12.00" fill="#1f2a33">Filter normalized roads</text>
<text xml:space="preserve" text-anchor="middle" x="582.12" y="-1170.3" font-family="Arial" font-size="12.00" fill="#1f2a33">keep divided study roads only</text>
</g>
<!-- phase2_hdr&#45;&gt;roads_filter -->
<!-- roads_rule -->
<g id="node11" class="node">
<title>roads_rule</title>
<polygon fill="#fff3d9" stroke="#d39b26" stroke-width="1.2" points="582.12,-1146.25 448.02,-1103.35 582.12,-1060.45 716.23,-1103.35 582.12,-1146.25"/>
<text xml:space="preserve" text-anchor="middle" x="582.12" y="-1106.2" font-family="Arial" font-size="12.00" fill="#1f2a33">Road row matches</text>
<text xml:space="preserve" text-anchor="middle" x="582.12" y="-1091.95" font-family="Arial" font-size="12.00" fill="#1f2a33">divided&#45;road criteria?</text>
</g>
<!-- roads_filter&#45;&gt;roads_rule -->
<g id="edge6" class="edge">
<title>roads_filter&#45;&gt;roads_rule</title>
<path fill="none" stroke="#4e5b66" stroke-width="1.05" d="M582.12,-1159.88C582.12,-1159.88 582.12,-1156.44 582.12,-1156.44"/>
<polygon fill="#4e5b66" stroke="#4e5b66" stroke-width="1.05" points="585,-1156.44 582.13,-1148.24 579.26,-1156.44 585,-1156.44"/>
</g>
<!-- study_roads -->
<g id="node12" class="node">
<title>study_roads</title>
<path fill="#cfeccf" stroke="#4d8b4d" stroke-width="1.2" d="M697.55,-1046.45C697.55,-1046.45 466.7,-1046.45 466.7,-1046.45 460.7,-1046.45 454.7,-1040.45 454.7,-1034.45 454.7,-1034.45 454.7,-1001.3 454.7,-1001.3 454.7,-995.3 460.7,-989.3 466.7,-989.3 466.7,-989.3 697.55,-989.3 697.55,-989.3 703.55,-989.3 709.55,-995.3 709.55,-1001.3 709.55,-1001.3 709.55,-1034.45 709.55,-1034.45 709.55,-1040.45 703.55,-1046.45 697.55,-1046.45"/>
<text xml:space="preserve" text-anchor="middle" x="582.12" y="-1027.85" font-family="Arial" font-size="12.00" fill="#1f2a33">Write Study_Roads_Divided</text>
<text xml:space="preserve" text-anchor="middle" x="582.12" y="-1013.6" font-family="Arial" font-size="12.00" fill="#1f2a33">bounded road rows used later</text>
<text xml:space="preserve" text-anchor="middle" x="582.12" y="-999.35" font-family="Arial" font-size="12.00" fill="#1f2a33">for signal anchoring and row&#45;level flow work</text>
</g>
<!-- roads_rule&#45;&gt;study_roads -->
<g id="edge7" class="edge">
<title>roads_rule&#45;&gt;study_roads</title>
<path fill="none" stroke="#4e5b66" stroke-width="1.05" d="M582.12,-1059.86C582.12,-1059.86 582.12,-1056.51 582.12,-1056.51"/>
<polygon fill="#4e5b66" stroke="#4e5b66" stroke-width="1.05" points="585,-1056.51 582.13,-1048.31 579.26,-1056.51 585,-1056.51"/>
<text xml:space="preserve" text-anchor="middle" x="573.5" y="-1047.74" font-family="Arial" font-size="11.00">Yes</text>
</g>
<!-- rule_slice -->
<g id="node23" class="node">
<title>rule_slice</title>
<path fill="#fff4e5" stroke="#d8a552" stroke-width="1.2" d="M953.58,-1129.39C953.58,-1129.39 790.67,-1129.39 790.67,-1129.39 784.67,-1129.39 778.67,-1123.39 778.67,-1117.39 778.67,-1117.39 778.67,-1089.31 778.67,-1089.31 778.67,-1083.31 784.67,-1077.31 790.67,-1077.31 790.67,-1077.31 953.58,-1077.31 953.58,-1077.31 959.58,-1077.31 965.58,-1083.31 965.58,-1089.31 965.58,-1089.31 965.58,-1117.39 965.58,-1117.39 965.58,-1123.39 959.58,-1129.39 953.58,-1129.39"/>
<text xml:space="preserve" text-anchor="middle" x="872.12" y="-1115.8" font-family="Arial" font-size="9.00" fill="#1f2a33">Study&#45;slice rules</text>
<text xml:space="preserve" text-anchor="middle" x="872.12" y="-1105.3" font-family="Arial" font-size="9.00" fill="#1f2a33">roads keep facility codes 2 or 4</text>
<text xml:space="preserve" text-anchor="middle" x="872.12" y="-1094.8" font-family="Arial" font-size="9.00" fill="#1f2a33">and exclude median code 1;</text>
<text xml:space="preserve" text-anchor="middle" x="872.12" y="-1084.3" font-family="Arial" font-size="9.00" fill="#1f2a33">signals must intersect a 20&#45;foot road buffer</text>
</g>
<!-- roads_rule&#45;&gt;rule_slice -->
<!-- signals_filter -->
<g id="node13" class="node">
<title>signals_filter</title>
<path fill="#eaf3f9" stroke="#3b6f8e" stroke-width="1.2" d="M668.3,-975.3C668.3,-975.3 495.95,-975.3 495.95,-975.3 489.95,-975.3 483.95,-969.3 483.95,-963.3 483.95,-963.3 483.95,-930.15 483.95,-930.15 483.95,-924.15 489.95,-918.15 495.95,-918.15 495.95,-918.15 668.3,-918.15 668.3,-918.15 674.3,-918.15 680.3,-924.15 680.3,-930.15 680.3,-930.15 680.3,-963.3 680.3,-963.3 680.3,-969.3 674.3,-975.3 668.3,-975.3"/>
<text xml:space="preserve" text-anchor="middle" x="582.12" y="-956.7" font-family="Arial" font-size="12.00" fill="#1f2a33">Filter normalized signals</text>
<text xml:space="preserve" text-anchor="middle" x="582.12" y="-942.45" font-family="Arial" font-size="12.00" fill="#1f2a33">keep only signals within</text>
<text xml:space="preserve" text-anchor="middle" x="582.12" y="-928.2" font-family="Arial" font-size="12.00" fill="#1f2a33">20 feet of the divided study roads</text>
</g>
<!-- study_roads&#45;&gt;signals_filter -->
<g id="edge8" class="edge">
<title>study_roads&#45;&gt;signals_filter</title>
<path fill="none" stroke="#4e5b66" stroke-width="1.05" d="M582.12,-988.94C582.12,-988.94 582.12,-985.66 582.12,-985.66"/>
<polygon fill="#4e5b66" stroke="#4e5b66" stroke-width="1.05" points="585,-985.66 582.13,-977.46 579.26,-985.66 585,-985.66"/>
</g>
<!-- signals_rule -->
<g id="node14" class="node">
<title>signals_rule</title>
<polygon fill="#fff3d9" stroke="#d39b26" stroke-width="1.2" points="582.12,-904.15 409.02,-861.25 582.12,-818.35 755.23,-861.25 582.12,-904.15"/>
<text xml:space="preserve" text-anchor="middle" x="582.12" y="-864.1" font-family="Arial" font-size="12.00" fill="#1f2a33">Signal falls inside the</text>
<text xml:space="preserve" text-anchor="middle" x="582.12" y="-849.85" font-family="Arial" font-size="12.00" fill="#1f2a33">bounded divided&#45;road slice?</text>
</g>
<!-- signals_filter&#45;&gt;signals_rule -->
<g id="edge9" class="edge">
<title>signals_filter&#45;&gt;signals_rule</title>
<path fill="none" stroke="#4e5b66" stroke-width="1.05" d="M582.12,-917.79C582.12,-917.79 582.12,-914.37 582.12,-914.37"/>
<polygon fill="#4e5b66" stroke="#4e5b66" stroke-width="1.05" points="585,-914.37 582.13,-906.17 579.26,-914.37 585,-914.37"/>
</g>
<!-- study_signals -->
<g id="node15" class="node">
<title>study_signals</title>
<path fill="#ddf2d8" stroke="#5e9b58" stroke-width="1.2" d="M671.67,-804.35C671.67,-804.35 492.57,-804.35 492.57,-804.35 486.57,-804.35 480.57,-798.35 480.57,-792.35 480.57,-792.35 480.57,-759.2 480.57,-759.2 480.57,-753.2 486.57,-747.2 492.57,-747.2 492.57,-747.2 671.67,-747.2 671.67,-747.2 677.67,-747.2 683.67,-753.2 683.67,-759.2 683.67,-759.2 683.67,-792.35 683.67,-792.35 683.67,-798.35 677.67,-804.35 671.67,-804.35"/>
<text xml:space="preserve" text-anchor="middle" x="582.12" y="-785.75" font-family="Arial" font-size="12.00" fill="#1f2a33">Write Study_Signals</text>
<text xml:space="preserve" text-anchor="middle" x="582.12" y="-771.5" font-family="Arial" font-size="12.00" fill="#1f2a33">only signal points that stay near</text>
<text xml:space="preserve" text-anchor="middle" x="582.12" y="-757.25" font-family="Arial" font-size="12.00" fill="#1f2a33">the bounded divided&#45;road network</text>
</g>
<!-- signals_rule&#45;&gt;study_signals -->
<g id="edge10" class="edge">
<title>signals_rule&#45;&gt;study_signals</title>
<path fill="none" stroke="#4e5b66" stroke-width="1.05" d="M582.12,-817.76C582.12,-817.76 582.12,-814.41 582.12,-814.41"/>
<polygon fill="#4e5b66" stroke="#4e5b66" stroke-width="1.05" points="585,-814.41 582.13,-806.21 579.26,-814.41 585,-814.41"/>
<text xml:space="preserve" text-anchor="middle" x="573.5" y="-805.64" font-family="Arial" font-size="11.00">Yes</text>
</g>
<!-- nearest -->
<g id="node16" class="node">
<title>nearest</title>
<path fill="#eaf3f9" stroke="#3b6f8e" stroke-width="1.2" d="M666.8,-733.2C666.8,-733.2 497.45,-733.2 497.45,-733.2 491.45,-733.2 485.45,-727.2 485.45,-721.2 485.45,-721.2 485.45,-673.8 485.45,-673.8 485.45,-667.8 491.45,-661.8 497.45,-661.8 497.45,-661.8 666.8,-661.8 666.8,-661.8 672.8,-661.8 678.8,-667.8 678.8,-673.8 678.8,-673.8 678.8,-721.2 678.8,-721.2 678.8,-727.2 672.8,-733.2 666.8,-733.2"/>
<text xml:space="preserve" text-anchor="middle" x="582.12" y="-714.6" font-family="Arial" font-size="12.00" fill="#1f2a33">Enrich each kept signal</text>
<text xml:space="preserve" text-anchor="middle" x="582.12" y="-700.35" font-family="Arial" font-size="12.00" fill="#1f2a33">with one nearest study&#45;road row,</text>
<text xml:space="preserve" text-anchor="middle" x="582.12" y="-686.1" font-family="Arial" font-size="12.00" fill="#1f2a33">distance, route identity,</text>
<text xml:space="preserve" text-anchor="middle" x="582.12" y="-671.85" font-family="Arial" font-size="12.00" fill="#1f2a33">and deterministic tie metadata</text>
</g>
<!-- study_signals&#45;&gt;nearest -->
<g id="edge11" class="edge">
<title>study_signals&#45;&gt;nearest</title>
<path fill="none" stroke="#4e5b66" stroke-width="1.05" d="M582.12,-746.63C582.12,-746.63 582.12,-743.35 582.12,-743.35"/>
<polygon fill="#4e5b66" stroke="#4e5b66" stroke-width="1.05" points="585,-743.35 582.13,-735.15 579.26,-743.35 585,-743.35"/>
</g>
<!-- study_signals_nearest -->
<g id="node17" class="node">
<title>study_signals_nearest</title>
<path fill="#cfeccf" stroke="#4d8b4d" stroke-width="1.2" d="M683.67,-647.8C683.67,-647.8 480.57,-647.8 480.57,-647.8 474.57,-647.8 468.57,-641.8 468.57,-635.8 468.57,-635.8 468.57,-602.65 468.57,-602.65 468.57,-596.65 474.57,-590.65 480.57,-590.65 480.57,-590.65 683.67,-590.65 683.67,-590.65 689.67,-590.65 695.67,-596.65 695.67,-602.65 695.67,-602.65 695.67,-635.8 695.67,-635.8 695.67,-641.8 689.67,-647.8 683.67,-647.8"/>
<text xml:space="preserve" text-anchor="middle" x="582.12" y="-629.2" font-family="Arial" font-size="12.00" fill="#1f2a33">Write Study_Signals_NearestRoad</text>
<text xml:space="preserve" text-anchor="middle" x="582.12" y="-614.95" font-family="Arial" font-size="12.00" fill="#1f2a33">signal points now carry</text>
<text xml:space="preserve" text-anchor="middle" x="582.12" y="-600.7" font-family="Arial" font-size="12.00" fill="#1f2a33">nearest&#45;row context for later prototypes</text>
</g>
<!-- nearest&#45;&gt;study_signals_nearest -->
<g id="edge12" class="edge">
<title>nearest&#45;&gt;study_signals_nearest</title>
<path fill="none" stroke="#4e5b66" stroke-width="1.05" d="M582.12,-661.57C582.12,-661.57 582.12,-657.92 582.12,-657.92"/>
<polygon fill="#4e5b66" stroke="#4e5b66" stroke-width="1.05" points="585,-657.92 582.13,-649.72 579.26,-657.92 585,-657.92"/>
</g>
<!-- rule_nearest -->
<g id="node24" class="node">
<title>rule_nearest</title>
<path fill="#fff4e5" stroke="#d8a552" stroke-width="1.2" d="M978.95,-723.54C978.95,-723.54 791.3,-723.54 791.3,-723.54 785.3,-723.54 779.3,-717.54 779.3,-711.54 779.3,-711.54 779.3,-683.46 779.3,-683.46 779.3,-677.46 785.3,-671.46 791.3,-671.46 791.3,-671.46 978.95,-671.46 978.95,-671.46 984.95,-671.46 990.95,-677.46 990.95,-683.46 990.95,-683.46 990.95,-711.54 990.95,-711.54 990.95,-717.54 984.95,-723.54 978.95,-723.54"/>
<text xml:space="preserve" text-anchor="middle" x="885.12" y="-709.95" font-family="Arial" font-size="9.00" fill="#1f2a33">Nearest&#45;road rule</text>
<text xml:space="preserve" text-anchor="middle" x="885.12" y="-699.45" font-family="Arial" font-size="9.00" fill="#1f2a33">choose the nearest Study_Roads_Divided row;</text>
<text xml:space="preserve" text-anchor="middle" x="885.12" y="-688.95" font-family="Arial" font-size="9.00" fill="#1f2a33">if tied, sort by distance, RTE_ID, RTE_NM,</text>
<text xml:space="preserve" text-anchor="middle" x="885.12" y="-678.45" font-family="Arial" font-size="9.00" fill="#1f2a33">FROM/TO measure, EVENT_SOUR, then RowID</text>
</g>
<!-- nearest&#45;&gt;rule_nearest -->
<!-- phase3_hdr -->
<g id="node18" class="node">
<title>phase3_hdr</title>
<path fill="#eaf3f9" stroke="none" stroke-width="1.2" d="M698.05,-576.65C698.05,-576.65 466.2,-576.65 466.2,-576.65 460.2,-576.65 454.2,-570.65 454.2,-564.65 454.2,-564.65 454.2,-544.25 454.2,-544.25 454.2,-538.25 460.2,-532.25 466.2,-532.25 466.2,-532.25 698.05,-532.25 698.05,-532.25 704.05,-532.25 710.05,-538.25 710.05,-544.25 710.05,-544.25 710.05,-564.65 710.05,-564.65 710.05,-570.65 704.05,-576.65 698.05,-576.65"/>
<text xml:space="preserve" text-anchor="start" x="561.5" y="-558" font-family="Arial" font-weight="bold" font-size="11.00" fill="#1f2a33">Phase 3</text>
<text xml:space="preserve" text-anchor="start" x="467" y="-543.7" font-family="Arial" font-size="9.00" fill="#1f2a33">prepare the specific handoffs later modules actually read</text>
</g>
<!-- study_signals_nearest&#45;&gt;phase3_hdr -->
<!-- out_active -->
<g id="node27" class="node">
<title>out_active</title>
<path fill="#eaf3f9" stroke="#3b6f8e" stroke-width="1.2" d="M784.37,-290.45C784.37,-290.45 627.88,-290.45 627.88,-290.45 621.88,-290.45 615.88,-284.45 615.88,-278.45 615.88,-278.45 615.88,-215.36 615.88,-215.36 615.88,-209.36 621.88,-203.36 627.88,-203.36 627.88,-203.36 784.37,-203.36 784.37,-203.36 790.37,-203.36 796.37,-209.36 796.37,-215.36 796.37,-215.36 796.37,-278.45 796.37,-278.45 796.37,-284.45 790.37,-290.45 784.37,-290.45"/>
<text xml:space="preserve" text-anchor="middle" x="706.12" y="-271.13" font-family="Arial" font-size="12.00" fill="#1f2a33">Active handoff layers</text>
<text xml:space="preserve" text-anchor="middle" x="706.12" y="-256.88" font-family="Arial" font-size="12.00" fill="#1f2a33">Study_Roads_Divided</text>
<text xml:space="preserve" text-anchor="middle" x="706.12" y="-242.63" font-family="Arial" font-size="12.00" fill="#1f2a33">Study_Signals</text>
<text xml:space="preserve" text-anchor="middle" x="706.12" y="-228.38" font-family="Arial" font-size="12.00" fill="#1f2a33">Study_Signals_NearestRoad</text>
<text xml:space="preserve" text-anchor="middle" x="706.12" y="-214.13" font-family="Arial" font-size="12.00" fill="#1f2a33">plus normalized crashes</text>
</g>
<!-- study_signals_nearest&#45;&gt;out_active -->
<g id="edge20" class="edge">
<title>study_signals_nearest&#45;&gt;out_active</title>
<path fill="none" stroke="#4e5b66" stroke-width="1.05" d="M696.13,-629C723.5,-629 745,-629 745,-629 745,-629 745,-300.53 745,-300.53"/>
<polygon fill="#4e5b66" stroke="#4e5b66" stroke-width="1.05" points="747.87,-300.53 745,-292.33 742.13,-300.53 747.87,-300.53"/>
</g>
<!-- output_anchor -->
<!-- study_signals_nearest&#45;&gt;output_anchor -->
<!-- phase3_hdr&#45;&gt;crash_prep -->
<!-- crash_prep&#45;&gt;speed_prep -->
<!-- rule_crash -->
<g id="node25" class="node">
<title>rule_crash</title>
<path fill="#e8f7f8" stroke="#4c94a0" stroke-width="1.2" d="M1013.95,-506.71C1013.95,-506.71 820.3,-506.71 820.3,-506.71 814.3,-506.71 808.3,-500.71 808.3,-494.71 808.3,-494.71 808.3,-456.13 808.3,-456.13 808.3,-450.13 814.3,-444.13 820.3,-444.13 820.3,-444.13 1013.95,-444.13 1013.95,-444.13 1019.95,-444.13 1025.95,-450.13 1025.95,-456.13 1025.95,-456.13 1025.95,-494.71 1025.95,-494.71 1025.95,-500.71 1019.95,-506.71 1013.95,-506.71"/>
<text xml:space="preserve" text-anchor="middle" x="917.12" y="-493.12" font-family="Arial" font-size="9.00" fill="#1f2a33">Crash evidence prep</text>
<text xml:space="preserve" text-anchor="middle" x="917.12" y="-482.62" font-family="Arial" font-size="9.00" fill="#1f2a33">later directionality reads normalized crashes,</text>
<text xml:space="preserve" text-anchor="middle" x="917.12" y="-472.12" font-family="Arial" font-size="9.00" fill="#1f2a33">adds raw CrashData_Details,</text>
<text xml:space="preserve" text-anchor="middle" x="917.12" y="-461.62" font-family="Arial" font-size="9.00" fill="#1f2a33">parses one clear cardinal DOT,</text>
<text xml:space="preserve" text-anchor="middle" x="917.12" y="-451.12" font-family="Arial" font-size="9.00" fill="#1f2a33">and marks single&#45;vehicle straight&#45;ahead qualifiers</text>
</g>
<!-- crash_prep&#45;&gt;rule_crash -->
<g id="edge36" class="edge">
<title>crash_prep&#45;&gt;rule_crash</title>
<path fill="none" stroke="#4c94a0" stroke-width="1.05" stroke-dasharray="5,2" d="M724.68,-475C752.55,-475 781.36,-475 807.94,-475"/>
</g>
<!-- crash_prep&#45;&gt;out_active -->
<g id="edge21" class="edge">
<title>crash_prep&#45;&gt;out_active</title>
<path fill="none" stroke="#4e5b66" stroke-width="1.05" d="M699.24,-432.17C699.24,-432.17 699.24,-300.55 699.24,-300.55"/>
<polygon fill="#4e5b66" stroke="#4e5b66" stroke-width="1.05" points="702.11,-300.55 699.24,-292.35 696.37,-300.55 702.11,-300.55"/>
</g>
<!-- crash_prep&#45;&gt;output_anchor -->
<!-- rule_speed -->
<g id="node26" class="node">
<title>rule_speed</title>
<path fill="#ddf3f5" stroke="#4c94a0" stroke-width="1.2" d="M1042.83,-408.94C1042.83,-408.94 791.42,-408.94 791.42,-408.94 785.42,-408.94 779.42,-402.94 779.42,-396.94 779.42,-396.94 779.42,-368.86 779.42,-368.86 779.42,-362.86 785.42,-356.86 791.42,-356.86 791.42,-356.86 1042.83,-356.86 1042.83,-356.86 1048.83,-356.86 1054.83,-362.86 1054.83,-368.86 1054.83,-368.86 1054.83,-396.94 1054.83,-396.94 1054.83,-402.94 1048.83,-408.94 1042.83,-408.94"/>
<text xml:space="preserve" text-anchor="middle" x="917.12" y="-395.35" font-family="Arial" font-size="9.00" fill="#1f2a33">Speed context prep</text>
<text xml:space="preserve" text-anchor="middle" x="917.12" y="-384.85" font-family="Arial" font-size="9.00" fill="#1f2a33">later prototype reads raw posted&#45;speed segments,</text>
<text xml:space="preserve" text-anchor="middle" x="917.12" y="-374.35" font-family="Arial" font-size="9.00" fill="#1f2a33">assigns a usable speed,</text>
<text xml:space="preserve" text-anchor="middle" x="917.12" y="-363.85" font-family="Arial" font-size="9.00" fill="#1f2a33">and maps that speed to functional distance and approach length</text>
</g>
<!-- speed_prep&#45;&gt;rule_speed -->
<g id="edge37" class="edge">
<title>speed_prep&#45;&gt;rule_speed</title>
<path fill="none" stroke="#4c94a0" stroke-width="1.05" stroke-dasharray="5,2" d="M696.7,-383C723.55,-383 751.87,-383 778.95,-383"/>
</g>
<!-- speed_prep&#45;&gt;out_active -->
<g id="edge22" class="edge">
<title>speed_prep&#45;&gt;out_active</title>
<path fill="none" stroke="#4c94a0" stroke-width="1.05" stroke-dasharray="5,2" d="M656.09,-346.81C656.09,-346.81 656.09,-300.72 656.09,-300.72"/>
<polygon fill="#4c94a0" stroke="#4c94a0" stroke-width="1.05" points="658.96,-300.72 656.09,-292.52 653.22,-300.72 658.96,-300.72"/>
<text xml:space="preserve" text-anchor="middle" x="614.84" y="-326.82" font-family="Arial" font-size="11.00" fill="#4c94a0">prototype context</text>
</g>
<!-- speed_prep&#45;&gt;output_anchor -->
<!-- out_directionality -->
<g id="node28" class="node">
<title>out_directionality</title>
<path fill="#ddf3f5" stroke="#4c94a0" stroke-width="1.2" d="M794.87,-189.36C794.87,-189.36 575.38,-189.36 575.38,-189.36 569.38,-189.36 563.38,-183.36 563.38,-177.36 563.38,-177.36 563.38,-128.52 563.38,-128.52 563.38,-122.52 569.38,-116.52 575.38,-116.52 575.38,-116.52 794.87,-116.52 794.87,-116.52 800.87,-116.52 806.87,-122.52 806.87,-128.52 806.87,-128.52 806.87,-177.36 806.87,-177.36 806.87,-183.36 800.87,-189.36 794.87,-189.36"/>
<text xml:space="preserve" text-anchor="middle" x="685.12" y="-170.04" font-family="Arial" font-size="12.00" fill="#1f2a33">Directionality experiment consumes</text>
<text xml:space="preserve" text-anchor="middle" x="685.12" y="-155.79" font-family="Arial" font-size="12.00" fill="#1f2a33">Study_Roads_Divided</text>
<text xml:space="preserve" text-anchor="middle" x="685.12" y="-141.54" font-family="Arial" font-size="12.00" fill="#1f2a33">Study_Signals_NearestRoad</text>
<text xml:space="preserve" text-anchor="middle" x="685.12" y="-127.29" font-family="Arial" font-size="12.00" fill="#1f2a33">normalized crashes + CrashData_Details</text>
</g>
<!-- out_active&#45;&gt;out_directionality -->
<g id="edge16" class="edge">
<title>out_active&#45;&gt;out_directionality</title>
<path fill="none" stroke="#4e5b66" stroke-width="1.05" d="M706.12,-202.95C706.12,-202.95 706.12,-199.6 706.12,-199.6"/>
<polygon fill="#4e5b66" stroke="#4e5b66" stroke-width="1.05" points="709,-199.6 706.13,-191.4 703.26,-199.6 709,-199.6"/>
</g>
<!-- out_updown -->
<g id="node29" class="node">
<title>out_updown</title>
<path fill="#ddf3f5" stroke="#4c94a0" stroke-width="1.2" d="M1064.99,-189.36C1064.99,-189.36 825.26,-189.36 825.26,-189.36 819.26,-189.36 813.26,-183.36 813.26,-177.36 813.26,-177.36 813.26,-128.52 813.26,-128.52 813.26,-122.52 819.26,-116.52 825.26,-116.52 825.26,-116.52 1064.99,-116.52 1064.99,-116.52 1070.99,-116.52 1076.99,-122.52 1076.99,-128.52 1076.99,-128.52 1076.99,-177.36 1076.99,-177.36 1076.99,-183.36 1070.99,-189.36 1064.99,-189.36"/>
<text xml:space="preserve" text-anchor="middle" x="945.12" y="-170.04" font-family="Arial" font-size="12.00" fill="#1f2a33">Upstream/downstream prototype reuses</text>
<text xml:space="preserve" text-anchor="middle" x="945.12" y="-155.79" font-family="Arial" font-size="12.00" fill="#1f2a33">those same roads, nearest&#45;road signals,</text>
<text xml:space="preserve" text-anchor="middle" x="945.12" y="-141.54" font-family="Arial" font-size="12.00" fill="#1f2a33">and prepared crash evidence,</text>
<text xml:space="preserve" text-anchor="middle" x="945.12" y="-127.29" font-family="Arial" font-size="12.00" fill="#1f2a33">then adds speed&#45;informed study&#45;area context</text>
</g>
<!-- out_active&#45;&gt;out_updown -->
<g id="edge17" class="edge">
<title>out_active&#45;&gt;out_updown</title>
<path fill="none" stroke="#4e5b66" stroke-width="1.05" d="M796.86,-247C860.42,-247 934.04,-247 934.04,-247 934.04,-247 934.04,-199.63 934.04,-199.63"/>
<polygon fill="#4e5b66" stroke="#4e5b66" stroke-width="1.05" points="936.91,-199.63 934.04,-191.43 931.17,-199.63 936.91,-199.63"/>
</g>
<!-- out_qc -->
<g id="node30" class="node">
<title>out_qc</title>
<path fill="#fff4e5" stroke="#d8a552" stroke-width="1.2" d="M917.92,-87.52C917.92,-87.52 712.33,-87.52 712.33,-87.52 706.33,-87.52 700.33,-81.52 700.33,-75.52 700.33,-75.52 700.33,-28 700.33,-28 700.33,-22 706.33,-16 712.33,-16 712.33,-16 917.92,-16 917.92,-16 923.92,-16 929.92,-22 929.92,-28 929.92,-28 929.92,-75.52 929.92,-75.52 929.92,-81.52 923.92,-87.52 917.92,-87.52"/>
<text xml:space="preserve" text-anchor="middle" x="815.12" y="-72.26" font-family="Arial" font-size="10.00" fill="#1f2a33">QC and traceability</text>
<text xml:space="preserve" text-anchor="middle" x="815.12" y="-60.26" font-family="Arial" font-size="10.00" fill="#1f2a33">stage1_input_manifest</text>
<text xml:space="preserve" text-anchor="middle" x="815.12" y="-48.26" font-family="Arial" font-size="10.00" fill="#1f2a33">stage1_normalized_manifest</text>
<text xml:space="preserve" text-anchor="middle" x="815.12" y="-36.26" font-family="Arial" font-size="10.00" fill="#1f2a33">stage1b study&#45;slice and nearest&#45;road QC JSONs</text>
<text xml:space="preserve" text-anchor="middle" x="815.12" y="-24.26" font-family="Arial" font-size="10.00" fill="#1f2a33">plus the parity manifest</text>
</g>
<!-- out_directionality&#45;&gt;out_qc -->
<!-- out_updown&#45;&gt;out_qc -->
<!-- output_anchor&#45;&gt;out_active -->
</g>
</svg>
