<svg xmlns="http://www.w3.org/2000/svg" width="900" height="520" viewBox="0 0 900 520">
<rect width="100%" height="100%" fill="white"/>
<text x="30" y="38" font-family="Arial, sans-serif" font-size="20" font-weight="bold" text-anchor="start" fill="#222">AADT Context Coverage by Distance Band</text>
<text x="30" y="62" font-family="Arial, sans-serif" font-size="12" font-weight="normal" text-anchor="start" fill="#222">Stable and review/missing bins</text>
<line x1="90" y1="90" x2="90" y2="390" stroke="#555"/>
<line x1="90" y1="390" x2="830" y2="390" stroke="#555"/>
<rect x="90" y="220" width="133" height="170" fill="#4477AA"/>
<rect x="90" y="208" width="133" height="12" fill="#BBBBBB"/>
<text x="156" y="200" font-family="Arial, sans-serif" font-size="11" font-weight="normal" text-anchor="middle" fill="#222">18,538</text>
<text x="156" y="414" font-family="Arial, sans-serif" font-size="10" font-weight="normal" text-anchor="middle" fill="#222">0-250 ft</text>
<rect x="241" y="212" width="133" height="178" fill="#4477AA"/>
<rect x="241" y="202" width="133" height="10" fill="#BBBBBB"/>
<text x="307" y="194" font-family="Arial, sans-serif" font-size="11" font-weight="normal" text-anchor="middle" fill="#222">19,142</text>
<text x="307" y="414" font-family="Arial, sans-serif" font-size="10" font-weight="normal" text-anchor="middle" fill="#222">250-500 ft</text>
<rect x="392" y="122" width="133" height="268" fill="#4477AA"/>
<rect x="392" y="111" width="133" height="11" fill="#BBBBBB"/>
<text x="458" y="103" font-family="Arial, sans-serif" font-size="11" font-weight="normal" text-anchor="middle" fill="#222">28,394</text>
<text x="458" y="414" font-family="Arial, sans-serif" font-size="10" font-weight="normal" text-anchor="middle" fill="#222">500-1,000 ft</text>
<rect x="543" y="206" width="133" height="184" fill="#4477AA"/>
<rect x="543" y="201" width="133" height="5" fill="#BBBBBB"/>
<text x="609" y="193" font-family="Arial, sans-serif" font-size="11" font-weight="normal" text-anchor="middle" fill="#222">19,225</text>
<text x="609" y="414" font-family="Arial, sans-serif" font-size="10" font-weight="normal" text-anchor="middle" fill="#222">1,000-1,500 ft</text>
<rect x="694" y="145" width="133" height="245" fill="#4477AA"/>
<rect x="694" y="141" width="133" height="4" fill="#BBBBBB"/>
<text x="760" y="133" font-family="Arial, sans-serif" font-size="11" font-weight="normal" text-anchor="middle" fill="#222">25,411</text>
<text x="760" y="414" font-family="Arial, sans-serif" font-size="10" font-weight="normal" text-anchor="middle" fill="#222">1,500-2,500 ft</text>
<rect x="610" y="88" width="12" height="12" fill="#4477AA"/>
<text x="628" y="99" font-family="Arial, sans-serif" font-size="11" font-weight="normal" text-anchor="start" fill="#222">Stable</text>
<rect x="610" y="108" width="12" height="12" fill="#BBBBBB"/>
<text x="628" y="119" font-family="Arial, sans-serif" font-size="11" font-weight="normal" text-anchor="start" fill="#222">Review/missing</text>
<text x="30" y="492" font-family="Arial, sans-serif" font-size="11" font-weight="normal" text-anchor="start" fill="#222">Source: accepted descriptive outputs. Descriptive counts only.</text>
</svg>